<svg width="5513" height="2315" viewBox="0 0 5513 2315" fill="none" xmlns="http://www.w3.org/2000/svg">
<rect width="5513" height="2315" fill="#1A1A1A"/>
<rect x="1989" y="886" width="330" height="330" fill="#F5F4EF"/>
<rect x="2592" y="886" width="330" height="330" fill="#0E0E0E"/>
<rect x="1989" y="886" width="330" height="330" fill="white"/>
<rect x="2592" y="886" width="330" height="330" fill="#F5F4EF"/>
<rect x="3195" y="886" width="330" height="330" fill="black"/>
<path d="M2410.9 314.86H2412.58V314.16C2412.58 310.94 2415.24 308.42 2418.46 308.42C2419.58 308.42 2420.7 308.7 2421.68 309.4L2421.82 309.54C2426.3 312.9 2431.9 314.86 2437.64 315H2438.06C2438.06 315 2438.34 315 2438.48 315C2438.48 315 2438.62 315 2438.76 315H2438.9C2439.04 315 2439.18 315 2439.18 315C2446.32 314.86 2452.9 311.92 2457.94 307.02C2463.54 301.42 2466.34 293.86 2465.92 286.02C2465.36 274.96 2458.64 268.66 2457.94 267.96L2422.66 238.28C2420.84 236.88 2418.6 234.5 2418.04 231.7C2417.34 227.78 2418.6 224.14 2420.14 222.6C2422.66 220.08 2425.6 218.12 2428.96 216.72C2432.04 215.6 2435.12 215.04 2438.48 215.04C2438.62 215.04 2438.76 215.04 2438.9 215.04C2444.5 215.04 2449.68 217 2454.16 220.36C2454.16 220.36 2454.86 220.92 2455 221.06C2455 221.06 2455.14 221.06 2455.14 221.2C2455.28 221.2 2455.28 221.34 2455.42 221.34L2455.56 221.48C2455.7 221.62 2455.84 221.76 2455.84 221.76C2455.98 221.9 2455.98 221.9 2456.12 222.04L2456.26 222.18C2456.4 222.32 2456.54 222.46 2456.68 222.6C2461.58 227.36 2464.24 233.94 2464.24 240.8V241.5H2466.06V213.36H2464.24V214.06C2464.24 217.28 2461.58 219.8 2458.5 219.8C2457.24 219.8 2456.12 219.52 2455.14 218.82C2450.52 215.18 2444.92 213.36 2438.9 213.22C2438.76 213.22 2438.62 213.22 2438.48 213.22C2434.98 213.22 2431.48 213.78 2428.26 215.04C2424.76 216.44 2421.68 218.54 2418.88 221.2V221.34C2416.08 224.14 2413.84 227.5 2412.44 231.28V231.56C2410.48 236.88 2412.16 242.76 2416.5 246.4C2416.78 246.68 2443.94 269.5 2450.8 275.24L2452.48 276.64C2452.76 276.78 2453.04 277.06 2453.32 277.34C2457.24 281.4 2459.48 286.58 2459.48 292.32C2459.48 297.92 2457.24 303.1 2453.32 307.16C2449.54 310.94 2444.5 313.04 2439.18 313.32C2439.04 313.32 2439.04 313.32 2438.9 313.32H2438.76C2438.62 313.32 2438.48 313.32 2438.48 313.32C2438.34 313.32 2438.2 313.32 2438.06 313.32H2437.64C2431.9 313.04 2426.44 311.08 2422.1 307.44L2421.96 307.3C2421.82 307.16 2421.68 307.16 2421.54 307.02V306.88C2421.4 306.88 2421.26 306.74 2421.12 306.6L2420.98 306.46C2420.84 306.46 2420.84 306.32 2420.7 306.18L2420.56 306.04C2420.42 305.9 2420.28 305.9 2420.14 305.76C2416.08 301.56 2413.56 296.38 2412.86 290.5C2412.72 289.52 2412.58 288.54 2412.58 287.42V286.72H2410.9V314.86ZM2531.14 230.72V213.22H2475.98V230.72H2477.66V230.02C2477.66 222.04 2483.96 215.46 2491.8 215.04H2498.38V313.32H2495.3V315H2511.68V313.32H2508.6V215.04H2515.18C2523.02 215.46 2529.32 222.04 2529.32 230.02V230.72H2531.14ZM2536.16 213.22V215.04H2539.52L2558 264.74V313.32H2554.92V315.14H2571.16V313.32H2568.08V264.74L2584.18 220.78C2585.3 217.56 2589.36 215.04 2593.42 215.04H2594.12V213.22H2577.74V215.04H2584.32L2582.5 220.22L2567.24 261.94L2549.74 215.04H2552.4V213.22H2536.16ZM2638.08 313.32H2612.32V213.22H2599.16V215.04H2602.24V313.32H2599.16V315H2654.04V297.64H2652.22V298.2C2652.22 306.18 2646.06 312.76 2638.08 313.32ZM2663.97 313.32V315H2718.85V297.64H2717.03V298.2C2717.03 306.18 2710.87 312.76 2702.89 313.32H2677.13V265.02H2693.23C2698.13 265.3 2702.05 269.36 2702.05 274.26V274.96H2703.87V253.26H2702.05V253.96C2702.05 258.86 2698.13 262.92 2693.23 263.2H2677.13V215.04H2702.89C2710.87 215.46 2717.03 222.04 2717.03 230.02V230.72H2718.85V213.22H2663.97V215.04H2667.05V313.32H2663.97ZM2763.77 264.18C2763.77 271.04 2765.03 277.62 2767.69 283.92C2770.21 289.94 2773.85 295.4 2778.47 300.02C2783.09 304.64 2788.41 308.42 2794.43 310.94C2800.73 313.6 2807.31 315 2814.17 315.14H2815.15C2823.83 315 2832.23 312.76 2839.65 308.56C2846.93 304.5 2853.09 298.62 2857.57 291.62C2857.71 291.48 2857.85 291.34 2857.99 291.06V290.92C2859.39 288.82 2860.51 286.58 2861.49 284.2C2861.49 284.2 2861.49 284.2 2861.49 284.06C2861.77 283.64 2862.19 283.5 2862.61 283.5C2863.31 283.5 2863.73 283.92 2863.73 284.62V314.86H2865.55V263.2H2822.85V265.02H2855.47C2855.19 277.76 2851.13 289.66 2843.57 298.76C2836.01 308 2825.93 313.18 2815.29 313.32H2814.17C2803.39 313.18 2793.31 308 2785.61 298.76C2778.05 289.52 2773.85 277.2 2773.85 264.18C2773.85 251.16 2778.05 238.84 2785.61 229.6C2793.31 220.36 2803.39 215.18 2814.17 215.04H2815.15C2823.69 215.18 2831.81 218.4 2838.53 224.42C2845.39 230.3 2850.29 238.28 2853.09 247.8L2853.37 248.36H2863.17L2862.75 247.24C2860.93 242.34 2858.55 237.72 2855.47 233.66C2852.39 229.6 2848.75 225.96 2844.55 222.88C2836.01 216.72 2825.93 213.36 2815.29 213.22H2814.17C2807.31 213.36 2800.73 214.76 2794.43 217.42C2788.41 219.94 2783.09 223.72 2778.47 228.34C2773.85 232.96 2770.21 238.42 2767.69 244.44C2765.03 250.74 2763.77 257.32 2763.77 264.18ZM2891.85 215.04V213.22H2875.61V215.04H2878.69V288.96C2878.69 296.38 2881.77 303.52 2887.23 308.42C2891.99 312.62 2898.01 315 2904.31 315C2910.61 315 2916.63 312.62 2921.25 308.42C2926.71 303.52 2929.93 296.38 2929.93 288.96V215.04H2933.01V213.22H2913.27V214.9L2913.97 215.04C2921.81 215.46 2928.11 222.04 2928.11 230.02V288.96C2928.11 295.82 2925.17 302.4 2919.99 307.02C2915.65 310.94 2910.05 313.18 2904.31 313.32C2900.53 313.18 2896.89 311.78 2894.09 309.26C2890.73 306.32 2888.91 301.98 2888.77 297.64V215.04H2891.85ZM2945.11 313.32V315H2961.35V313.32H2958.27V215.04H2961.35V213.22H2945.11V215.04H2948.19V313.32H2945.11ZM2973.5 213.22V215.04H2976.58V313.32H2973.5V315.14H2985.96L2986.66 315H2986.8C2993.66 315 3000.24 313.6 3006.54 310.94C3012.56 308.28 3017.88 304.64 3022.5 300.02C3027.12 295.26 3030.76 289.8 3033.28 283.78C3035.94 277.62 3037.2 270.9 3037.2 264.18C3037.2 257.32 3035.94 250.6 3033.28 244.44C3030.76 238.42 3027.12 232.96 3022.5 228.34C3017.88 223.58 3012.56 219.94 3006.54 217.28C3000.24 214.62 2993.66 213.22 2986.8 213.22H2973.5ZM2986.66 215.04H2986.8C2997.58 215.18 3007.66 220.36 3015.22 229.46C3022.92 238.84 3027.12 251.02 3027.12 264.18C3027.12 277.2 3022.92 289.52 3015.22 298.76C3007.66 308 2997.58 313.04 2986.8 313.32H2986.66V215.04ZM3047.33 313.32V315H3102.21V297.64H3100.39V298.2C3100.39 306.18 3094.23 312.76 3086.25 313.32H3060.49V265.02H3076.59C3081.49 265.3 3085.41 269.36 3085.41 274.26V274.96H3087.23V253.26H3085.41V253.96C3085.41 258.86 3081.49 262.92 3076.59 263.2H3060.49V215.04H3086.25C3094.23 215.46 3100.39 222.04 3100.39 230.02V230.72H3102.21V213.22H3047.33V215.04H3050.41V313.32H3047.33Z" fill="white"/>
<path d="M2689.8 624.6C2688.9 628 2687.2 631.3 2684.8 633.9C2682.7 636.3 2680.2 638.2 2677.2 639.6C2674.2 641 2671 641.7 2667.7 641.8C2663.2 641.7 2658.9 639.9 2655.8 636.7C2652.6 633.5 2650.8 629.3 2650.7 624.8V612.3C2650.8 607.8 2652.6 603.6 2655.8 600.4C2658.9 597.2 2663.2 595.4 2667.7 595.4C2672.2 595.5 2676.4 597.2 2679.6 600.4C2682.8 603.6 2684.6 607.8 2684.7 612.4V613H2691.3L2691.1 612.2C2690.1 608.6 2688.3 605.2 2685.8 602.4C2683.6 599.8 2680.9 597.8 2677.8 596.4C2674.7 594.9 2671.4 594.2 2667.9 594.1C2667.9 594.1 2667.8 594.1 2667.7 594.1C2664.2 594.1 2660.8 594.9 2657.6 596.4C2654.5 597.8 2651.8 599.8 2649.6 602.4C2645.6 606.9 2643.5 612.6 2643.5 618.6C2643.5 624.5 2645.6 630.3 2649.6 634.8C2651.8 637.3 2654.5 639.3 2657.6 640.8C2660.8 642.2 2664.2 643 2667.7 643C2667.8 643 2667.9 643 2667.9 643C2671.4 643 2674.7 642.2 2677.8 640.8C2680.9 639.3 2683.6 637.3 2685.8 634.8C2688.3 632 2690.1 628.6 2691.1 625L2691.2 624.5L2690 624.2L2689.8 624.6ZM2740.68 602.4C2738.48 599.8 2735.78 597.8 2732.68 596.4C2729.58 594.9 2726.28 594.2 2722.78 594.1C2722.78 594.1 2722.68 594.1 2722.58 594.1C2719.08 594.1 2715.68 594.9 2712.48 596.4C2709.38 597.8 2706.68 599.8 2704.48 602.4C2700.48 606.9 2698.38 612.6 2698.38 618.6C2698.38 624.5 2700.48 630.3 2704.48 634.8C2706.68 637.3 2709.38 639.3 2712.48 640.8C2715.68 642.2 2719.08 643 2722.58 643C2726.08 643 2729.48 642.2 2732.68 640.8C2735.78 639.3 2738.48 637.3 2740.68 634.8C2744.68 630.3 2746.78 624.5 2746.78 618.6C2746.78 612.6 2744.68 606.9 2740.68 602.4ZM2739.58 624.8C2739.48 629.3 2737.68 633.5 2734.48 636.7C2731.28 639.9 2727.08 641.7 2722.58 641.8C2718.08 641.7 2713.78 639.9 2710.68 636.7C2707.48 633.5 2705.68 629.3 2705.58 624.8V612.3C2705.68 607.8 2707.48 603.6 2710.68 600.4C2713.78 597.2 2718.08 595.4 2722.58 595.4C2727.08 595.4 2731.28 597.2 2734.48 600.4C2737.68 603.6 2739.48 607.8 2739.58 612.3V624.8ZM2763.55 641.8V569.9L2753.95 574.3L2754.45 575.4L2756.35 574.6V641.8H2754.15V643H2765.75V641.8H2763.55ZM2815.19 602.4C2812.99 599.8 2810.29 597.8 2807.19 596.4C2804.09 594.9 2800.79 594.2 2797.29 594.1C2797.29 594.1 2797.19 594.1 2797.09 594.1C2793.59 594.1 2790.19 594.9 2786.99 596.4C2783.89 597.8 2781.19 599.8 2778.99 602.4C2774.99 606.9 2772.89 612.6 2772.89 618.6C2772.89 624.5 2774.99 630.3 2778.99 634.8C2781.19 637.3 2783.89 639.3 2786.99 640.8C2790.19 642.2 2793.59 643 2797.09 643C2800.59 643 2803.99 642.2 2807.19 640.8C2810.29 639.3 2812.99 637.3 2815.19 634.8C2819.19 630.3 2821.29 624.5 2821.29 618.6C2821.29 612.6 2819.19 606.9 2815.19 602.4ZM2814.09 624.8C2813.99 629.3 2812.19 633.5 2808.99 636.7C2805.79 639.9 2801.59 641.7 2797.09 641.8C2792.59 641.7 2788.29 639.9 2785.19 636.7C2781.99 633.5 2780.19 629.3 2780.09 624.8V612.3C2780.19 607.8 2781.99 603.6 2785.19 600.4C2788.29 597.2 2792.59 595.4 2797.09 595.4C2801.59 595.4 2805.79 597.2 2808.99 600.4C2812.19 603.6 2813.99 607.8 2814.09 612.3V624.8ZM2837.86 598.1C2842.76 594.5 2848.36 592.4 2854.36 592.2C2854.76 592.2 2855.16 592.2 2855.56 592.2C2855.96 592.2 2856.36 592.2 2856.76 592.2C2860.26 592.4 2863.56 593.7 2866.26 595.9C2868.96 598 2870.96 600.8 2871.96 604.1L2872.06 604.4L2879.66 606.4L2879.26 605.3C2878.46 603 2877.16 600.7 2875.56 598.9H2875.46C2873.16 596.5 2870.26 594.5 2867.06 593.2C2863.86 591.8 2860.36 591 2856.86 590.9C2856.46 590.9 2855.96 590.9 2855.56 590.9C2855.16 590.9 2854.66 590.9 2854.26 590.9C2848.36 591.2 2842.76 593.1 2837.86 596.5V594.1H2828.46V595.4H2830.66V641.8H2828.46V643.1H2840.06V641.8H2837.86V598.1ZM2879.76 624.5C2879.36 622.2 2878.36 620.2 2876.96 618.3C2876.46 617.7 2876.06 617.2 2875.46 616.6C2873.86 615 2870.96 613.5 2868.66 612.3L2862.56 609.4C2857.76 607.1 2852.86 604.3 2852.36 601.8C2852.26 600.9 2852.56 600.2 2853.26 599.4L2853.36 599.3L2853.76 598.9L2852.86 598L2852.46 598.4C2852.46 598.4 2852.46 598.4 2852.36 598.5C2851.06 599.8 2850.16 601.2 2849.56 602.9C2848.86 604.6 2848.76 606.6 2849.26 608.3C2849.86 610.3 2851.16 611.8 2852.96 612.8C2859.56 615.9 2872.06 621.9 2872.36 622.1C2873.16 622.5 2873.96 623.1 2874.56 623.8C2876.36 625.6 2877.46 628 2877.46 630.6C2877.46 633.1 2876.56 635.6 2874.76 637.4V637.5C2874.66 637.5 2874.66 637.6 2874.56 637.6C2872.16 640 2868.96 641.5 2865.46 641.7C2865.16 641.8 2864.86 641.8 2864.46 641.8C2861.46 641.8 2858.46 640.8 2856.06 639C2856.06 639 2855.76 638.8 2855.56 638.6C2855.16 638.3 2854.76 638 2854.46 637.6C2851.76 634.9 2850.26 631.4 2850.26 627.6V627.1H2848.96V642.9H2850.26V642.4C2850.26 640.7 2851.56 639.2 2853.26 639.2C2853.76 639.2 2854.36 639.4 2854.76 639.7C2854.96 639.8 2855.26 640 2855.26 640C2857.96 642 2861.16 643.1 2864.46 643.1C2864.86 643.1 2865.26 643.1 2865.56 643C2869.16 642.8 2872.56 641.3 2875.16 638.9L2875.46 638.5L2875.86 638.2C2879.36 634.5 2880.76 629.4 2879.76 624.5Z" fill="white"/>
<path d="M2582.3 1609.6L2582 1609.9C2579.5 1611.8 2576.5 1612.8 2573.4 1612.8C2573.4 1612.8 2573.4 1612.8 2573.3 1612.8H2573.2C2571.5 1612.7 2569.8 1612.1 2568.4 1611.1C2566.4 1609.6 2565.2 1607.2 2565.1 1604.7C2565.1 1604.2 2565.1 1570.8 2565.1 1566.4H2582.9V1565.1H2561.9C2563.2 1564.3 2564.2 1563.1 2564.8 1561.6C2564.8 1561.4 2564.9 1561.2 2564.9 1561C2565.1 1560.5 2565.1 1560 2565.1 1559.5V1540.9L2555.5 1545.3L2556 1546.4L2557.9 1545.6V1565.1H2555.7V1566.4H2557.9V1598.5V1599.2C2558 1601.4 2558.5 1603.6 2559.6 1605.6C2560.6 1607.7 2562.2 1609.5 2564.1 1610.9C2566.6 1612.8 2569.6 1613.9 2572.7 1614H2572.9C2573 1614 2573.1 1614 2573.2 1614C2573.3 1614 2573.3 1614 2573.4 1614C2576.8 1614 2580 1613 2582.7 1610.9L2583.1 1610.7L2582.3 1609.6ZM2612.05 1566.4H2617.15L2616.15 1570.6L2607.15 1610.9L2593.05 1565.1H2583.75V1566.4H2586.15L2600.75 1614H2606.45L2604.45 1623C2603.85 1625.6 2602.35 1628 2600.15 1629.6C2598.15 1631 2595.75 1631.8 2593.35 1631.8C2592.65 1631.8 2591.95 1631.8 2591.25 1631.6L2584.55 1630.3L2583.15 1637.4L2583.75 1637.5C2584.95 1637.7 2586.25 1637.9 2587.45 1637.9C2591.45 1637.9 2595.45 1636.6 2598.55 1634.2C2602.25 1631.6 2604.75 1627.7 2605.65 1623.3C2605.65 1623.3 2613.85 1586.6 2617.45 1570.9C2618.15 1568.2 2620.55 1566.4 2623.25 1566.4H2623.75V1565.1H2612.05V1566.4ZM2672.28 1573.4C2669.98 1570.8 2667.38 1568.8 2664.28 1567.4C2661.08 1565.9 2657.68 1565.1 2654.18 1565.1C2654.08 1565.1 2653.98 1565.1 2653.88 1565.1C2648.98 1565.1 2644.28 1567 2640.78 1570.5C2638.98 1572.3 2637.58 1574.5 2636.68 1576.8V1565.1H2627.28V1566.4H2629.48V1636.6H2627.28V1637.9H2638.88V1636.6H2636.68V1602.4C2637.58 1604.7 2638.98 1606.8 2640.78 1608.6C2644.28 1612.1 2648.98 1614.1 2653.88 1614.1C2653.98 1614.1 2654.08 1614 2654.18 1614C2657.68 1614 2661.08 1613.2 2664.28 1611.8C2667.38 1610.3 2669.98 1608.3 2672.28 1605.8C2676.18 1601.3 2678.38 1595.5 2678.38 1589.6C2678.38 1583.6 2676.18 1577.9 2672.28 1573.4ZM2666.08 1607.7C2662.88 1610.9 2658.68 1612.7 2654.18 1612.8C2654.08 1612.8 2653.98 1612.8 2653.88 1612.8C2649.38 1612.8 2645.08 1611 2641.78 1607.8C2638.58 1604.6 2636.78 1600.3 2636.68 1595.7V1583.4C2636.78 1578.9 2638.58 1574.6 2641.78 1571.4C2645.08 1568.2 2649.38 1566.4 2653.88 1566.4C2653.98 1566.4 2654.08 1566.4 2654.18 1566.4C2658.68 1566.4 2662.88 1568.2 2666.08 1571.4C2669.28 1574.6 2671.08 1578.8 2671.18 1583.3V1595.8C2671.08 1600.3 2669.28 1604.5 2666.08 1607.7ZM2725.68 1584H2733.38L2733.18 1583.2C2732.18 1579.6 2730.38 1576.2 2727.88 1573.4C2725.68 1570.8 2722.98 1568.8 2719.88 1567.4C2716.78 1565.9 2713.48 1565.2 2709.98 1565.1H2709.78C2706.28 1565.1 2702.88 1565.9 2699.68 1567.4C2696.58 1568.8 2693.88 1570.8 2691.68 1573.4C2687.68 1577.9 2685.58 1583.6 2685.58 1589.6C2685.58 1595.5 2687.68 1601.3 2691.68 1605.8C2693.88 1608.3 2696.58 1610.3 2699.68 1611.8C2702.88 1613.2 2706.28 1614 2709.78 1614H2709.98C2713.48 1614 2716.78 1613.2 2719.88 1611.8C2722.98 1610.3 2725.68 1608.3 2727.88 1605.8C2729.08 1604.4 2730.08 1602.9 2730.98 1601.3C2733.18 1597.4 2733.08 1592.8 2730.88 1588.9C2729.58 1586.7 2727.78 1585.1 2725.68 1584ZM2697.88 1571.4C2700.98 1568.2 2705.28 1566.4 2709.78 1566.4C2714.28 1566.5 2718.48 1568.2 2721.68 1571.4C2724.78 1574.4 2726.48 1578.4 2726.78 1582.7H2692.78C2692.98 1578.4 2694.78 1574.4 2697.88 1571.4ZM2729.88 1600.7C2729.08 1602.2 2728.08 1603.6 2726.88 1604.9C2724.78 1607.3 2722.28 1609.2 2719.28 1610.6C2716.28 1612 2713.08 1612.7 2709.78 1612.8C2705.28 1612.7 2700.98 1610.9 2697.88 1607.7C2694.68 1604.5 2692.88 1600.3 2692.78 1595.8V1584H2720.58C2724.38 1584.1 2727.78 1586.2 2729.78 1589.6C2731.78 1593 2731.78 1597.2 2729.88 1600.7ZM2773.46 1546C2770.16 1543 2765.86 1541.3 2761.36 1541.3H2761.16C2761.06 1541.3 2760.96 1541.3 2760.96 1541.3C2756.56 1541.3 2752.36 1542.9 2749.06 1545.8L2748.76 1546C2748.26 1546.5 2747.86 1546.9 2747.36 1547.4C2747.26 1547.5 2747.16 1547.7 2747.06 1547.8C2746.56 1548.4 2746.06 1549.1 2745.66 1549.7C2745.36 1550.2 2745.16 1550.6 2744.86 1551C2743.36 1553.7 2742.66 1556.8 2742.66 1559.9V1565.1H2740.46V1566.4H2742.66V1612.8H2740.46V1614H2752.06V1612.8H2749.86V1566.4C2752.06 1566.4 2761.66 1566.4 2761.66 1566.4V1565.1H2761.16C2761.06 1565.1 2752.06 1565.1 2749.86 1565.1V1553.8C2749.96 1550.6 2751.26 1547.6 2753.66 1545.4C2755.66 1543.6 2758.26 1542.6 2760.96 1542.6C2760.96 1542.6 2761.06 1542.6 2761.16 1542.6H2761.26C2764.06 1542.6 2766.66 1543.6 2768.66 1545.4C2770.96 1547.6 2772.36 1550.6 2772.46 1553.8V1560.6H2779.66V1559.9C2779.66 1554.6 2777.46 1549.6 2773.46 1546ZM2808.03 1580.6C2808.03 1578.2 2807.43 1575.8 2806.33 1573.6C2805.23 1571.5 2803.63 1569.6 2801.73 1568.2C2799.13 1566.2 2796.03 1565.1 2792.63 1565.1H2792.43C2789.03 1565.1 2785.83 1566.2 2783.13 1568.2C2781.23 1569.6 2779.63 1571.5 2778.63 1573.6C2777.53 1575.8 2776.93 1578.2 2776.93 1580.6C2776.93 1582.3 2777.13 1583.9 2777.73 1585.5C2777.43 1585.7 2777.13 1585.9 2776.93 1586.1C2775.03 1587.5 2773.43 1589.4 2772.33 1591.5C2771.23 1593.6 2770.73 1596 2770.73 1598.5C2770.73 1601 2771.23 1603.4 2772.33 1605.6C2773.43 1607.7 2775.03 1609.5 2776.93 1610.9C2779.53 1612.9 2782.73 1614 2786.03 1614H2786.23C2789.63 1614 2792.93 1613 2795.73 1610.9C2797.63 1609.4 2799.23 1607.6 2800.33 1605.4C2800.43 1605.1 2800.63 1604.8 2800.73 1604.5V1614H2810.23V1612.8H2808.03V1580.6ZM2800.73 1598.3C2800.73 1600.6 2800.23 1602.8 2799.13 1604.8C2798.13 1606.8 2796.73 1608.5 2794.93 1609.9C2792.43 1611.8 2789.43 1612.8 2786.23 1612.8C2786.13 1612.8 2786.03 1612.8 2786.03 1612.8C2784.33 1612.7 2782.63 1612.1 2781.23 1611.1C2779.23 1609.6 2778.03 1607.2 2777.93 1604.7C2777.93 1604.5 2777.93 1592.6 2777.93 1592.3C2778.03 1589.8 2779.23 1587.5 2781.23 1585.9C2782.63 1584.9 2784.33 1584.3 2786.03 1584.3H2792.43C2794.53 1584.3 2796.53 1583.6 2798.23 1582.4C2799.23 1581.6 2800.13 1580.6 2800.73 1579.5V1598.3ZM2800.73 1574.9C2800.63 1577.5 2799.43 1579.8 2797.43 1581.3C2796.03 1582.4 2794.23 1583 2792.43 1583H2786.03C2783.53 1583 2781.03 1583.6 2778.83 1584.8C2778.43 1583.5 2778.23 1582.1 2778.23 1580.6C2778.23 1578.4 2778.73 1576.2 2779.73 1574.2C2780.73 1572.2 2782.13 1570.5 2783.93 1569.2C2786.43 1567.4 2789.33 1566.4 2792.43 1566.4C2792.53 1566.4 2792.63 1566.4 2792.63 1566.4C2794.43 1566.4 2796.03 1567 2797.43 1568C2799.43 1569.6 2800.63 1571.9 2800.73 1574.5V1574.9ZM2863.62 1595.6C2862.72 1599 2861.02 1602.3 2858.62 1604.9C2856.52 1607.3 2854.02 1609.2 2851.02 1610.6C2848.02 1612 2844.82 1612.7 2841.52 1612.8C2837.02 1612.7 2832.72 1610.9 2829.62 1607.7C2826.42 1604.5 2824.62 1600.3 2824.52 1595.8V1583.3C2824.62 1578.8 2826.42 1574.6 2829.62 1571.4C2832.72 1568.2 2837.02 1566.4 2841.52 1566.4C2846.02 1566.5 2850.22 1568.2 2853.42 1571.4C2856.62 1574.6 2858.42 1578.8 2858.52 1583.4V1584H2865.12L2864.92 1583.2C2863.92 1579.6 2862.12 1576.2 2859.62 1573.4C2857.42 1570.8 2854.72 1568.8 2851.62 1567.4C2848.52 1565.9 2845.22 1565.2 2841.72 1565.1C2841.72 1565.1 2841.62 1565.1 2841.52 1565.1C2838.02 1565.1 2834.62 1565.9 2831.42 1567.4C2828.32 1568.8 2825.62 1570.8 2823.42 1573.4C2819.42 1577.9 2817.32 1583.6 2817.32 1589.6C2817.32 1595.5 2819.42 1601.3 2823.42 1605.8C2825.62 1608.3 2828.32 1610.3 2831.42 1611.8C2834.62 1613.2 2838.02 1614 2841.52 1614C2841.62 1614 2841.72 1614 2841.72 1614C2845.22 1614 2848.52 1613.2 2851.62 1611.8C2854.72 1610.3 2857.42 1608.3 2859.62 1605.8C2862.12 1603 2863.92 1599.6 2864.92 1596L2865.02 1595.5L2863.82 1595.2L2863.62 1595.6ZM2912.3 1584H2920L2919.8 1583.2C2918.8 1579.6 2917 1576.2 2914.5 1573.4C2912.3 1570.8 2909.6 1568.8 2906.5 1567.4C2903.4 1565.9 2900.1 1565.2 2896.6 1565.1H2896.4C2892.9 1565.1 2889.5 1565.9 2886.3 1567.4C2883.2 1568.8 2880.5 1570.8 2878.3 1573.4C2874.3 1577.9 2872.2 1583.6 2872.2 1589.6C2872.2 1595.5 2874.3 1601.3 2878.3 1605.8C2880.5 1608.3 2883.2 1610.3 2886.3 1611.8C2889.5 1613.2 2892.9 1614 2896.4 1614H2896.6C2900.1 1614 2903.4 1613.2 2906.5 1611.8C2909.6 1610.3 2912.3 1608.3 2914.5 1605.8C2915.7 1604.4 2916.7 1602.9 2917.6 1601.3C2919.8 1597.4 2919.7 1592.8 2917.5 1588.9C2916.2 1586.7 2914.4 1585.1 2912.3 1584ZM2884.5 1571.4C2887.6 1568.2 2891.9 1566.4 2896.4 1566.4C2900.9 1566.5 2905.1 1568.2 2908.3 1571.4C2911.4 1574.4 2913.1 1578.4 2913.4 1582.7H2879.4C2879.6 1578.4 2881.4 1574.4 2884.5 1571.4ZM2916.5 1600.7C2915.7 1602.2 2914.7 1603.6 2913.5 1604.9C2911.4 1607.3 2908.9 1609.2 2905.9 1610.6C2902.9 1612 2899.7 1612.7 2896.4 1612.8C2891.9 1612.7 2887.6 1610.9 2884.5 1607.7C2881.3 1604.5 2879.5 1600.3 2879.4 1595.8V1584H2907.2C2911 1584.1 2914.4 1586.2 2916.4 1589.6C2918.4 1593 2918.4 1597.2 2916.5 1600.7ZM2957.88 1595.5C2957.38 1593.2 2956.38 1591.1 2954.98 1589.3C2954.58 1588.7 2954.08 1588.2 2953.58 1587.6C2951.88 1586 2949.08 1584.5 2946.78 1583.3C2944.48 1582.2 2940.68 1580.4 2940.68 1580.4C2935.88 1578.1 2930.88 1575.3 2930.48 1572.7C2930.28 1571.9 2930.58 1571.2 2931.38 1570.4C2931.38 1570.3 2931.48 1570.3 2931.48 1570.3C2933.78 1567.9 2937.18 1566.5 2940.88 1566.4C2941.08 1566.4 2941.38 1566.4 2941.58 1566.4C2944.88 1566.4 2948.28 1567.4 2950.78 1569.2C2950.98 1569.3 2951.08 1569.4 2951.18 1569.5C2951.68 1569.9 2952.18 1570.3 2952.68 1570.7C2955.28 1573.3 2956.68 1576.7 2956.78 1580.4V1580.8H2958.08V1565.3H2956.78V1565.7C2956.78 1567.6 2955.48 1568.9 2953.58 1568.9C2953.08 1568.9 2952.48 1568.8 2951.98 1568.5C2951.78 1568.3 2951.68 1568.2 2951.58 1568.2C2948.78 1566.2 2945.18 1565.1 2941.58 1565.1C2941.28 1565.1 2941.08 1565.1 2940.88 1565.1C2936.78 1565.3 2933.18 1566.8 2930.58 1569.3C2930.48 1569.4 2930.48 1569.4 2930.48 1569.5C2929.08 1570.8 2928.28 1572.2 2927.58 1573.9C2926.98 1575.6 2926.88 1577.6 2927.38 1579.3C2927.88 1581.3 2929.18 1582.8 2930.98 1583.7H2931.08C2937.58 1586.9 2950.08 1592.9 2950.38 1593.1C2951.28 1593.5 2951.98 1594.1 2952.68 1594.7C2954.48 1596.6 2955.48 1599 2955.48 1601.5C2955.58 1604.1 2954.58 1606.5 2952.88 1608.4L2952.68 1608.6C2950.18 1611 2946.98 1612.5 2943.58 1612.7C2943.28 1612.7 2942.88 1612.8 2942.58 1612.8C2939.58 1612.8 2936.58 1611.8 2934.08 1610C2933.98 1609.9 2933.78 1609.7 2933.68 1609.6C2933.28 1609.3 2932.88 1609 2932.48 1608.6C2929.78 1605.9 2928.28 1602.4 2928.28 1598.6V1598.1H2927.08V1613.9H2928.28V1613.4C2928.28 1611.6 2929.68 1610.2 2931.28 1610.2C2931.88 1610.2 2932.38 1610.4 2932.88 1610.7C2932.98 1610.8 2933.18 1610.9 2933.28 1611H2933.38C2935.98 1613 2939.28 1614 2942.58 1614C2942.98 1614 2943.28 1614 2943.68 1614C2947.38 1613.8 2950.88 1612.2 2953.58 1609.5C2953.68 1609.4 2953.68 1609.4 2953.78 1609.3C2957.38 1605.6 2958.88 1600.4 2957.88 1595.5Z" fill="white"/>
<path d="M1498.9 1803.22V1805.04H1501.98V1903.32H1498.9V1905H1499.46C1503.24 1905 1536.42 1905 1536.56 1905C1541.46 1905 1546.22 1903.88 1550.7 1901.92C1555.04 1899.82 1558.68 1897.02 1561.9 1893.52C1567.36 1887.22 1570.44 1879.1 1570.44 1870.84C1570.44 1862.44 1567.36 1854.46 1561.9 1848.16C1560.5 1846.62 1558.96 1845.08 1557.28 1843.82C1560.36 1839.48 1562.04 1834.3 1562.04 1828.98C1562.04 1821.98 1559.38 1815.54 1554.48 1810.64C1549.72 1805.88 1543.14 1803.22 1536.14 1803.22H1498.9ZM1536.56 1903.32C1536.42 1903.32 1536.28 1903.32 1536.14 1903.32H1512.06V1821.98C1513.46 1825.34 1515.42 1828.28 1517.94 1830.94C1522.84 1835.7 1529.28 1838.36 1536.14 1838.36H1536.42H1536.56C1539.92 1838.36 1543.28 1839.2 1546.36 1840.6C1549.3 1842 1551.96 1843.82 1554.2 1846.34C1557.98 1850.68 1560.22 1856.28 1560.36 1862.02V1879.52C1560.22 1885.82 1557.7 1891.7 1553.22 1896.18C1548.74 1900.66 1542.86 1903.18 1536.56 1903.32ZM1555.88 1842.7C1550.14 1838.78 1543.56 1836.54 1536.56 1836.54C1536.42 1836.54 1536.28 1836.54 1536.14 1836.54H1536C1529.7 1836.54 1523.68 1834.02 1519.2 1829.54C1514.72 1825.06 1512.2 1819.18 1512.06 1812.74V1805.04H1536.14C1542.58 1805.04 1548.6 1807.42 1553.22 1812.04C1557.7 1816.52 1560.22 1822.54 1560.22 1828.98C1560.22 1833.88 1558.68 1838.64 1555.88 1842.7ZM1582.48 1903.32V1905H1598.72V1903.32H1595.64V1805.04H1598.72V1803.22H1582.48V1805.04H1585.56V1903.32H1582.48ZM1610.87 1854.18C1610.87 1861.04 1612.13 1867.62 1614.79 1873.92C1617.31 1879.94 1620.95 1885.4 1625.57 1890.02C1630.19 1894.64 1635.51 1898.42 1641.53 1900.94C1647.83 1903.6 1654.41 1905 1661.27 1905.14H1662.25C1670.93 1905 1679.33 1902.76 1686.75 1898.56C1694.03 1894.5 1700.19 1888.62 1704.67 1881.62C1704.81 1881.48 1704.95 1881.34 1705.09 1881.06V1880.92C1706.49 1878.82 1707.61 1876.58 1708.59 1874.2C1708.59 1874.2 1708.59 1874.2 1708.59 1874.06C1708.87 1873.64 1709.29 1873.5 1709.71 1873.5C1710.41 1873.5 1710.83 1873.92 1710.83 1874.62V1904.86H1712.65V1853.2H1669.95V1855.02H1702.57C1702.29 1867.76 1698.23 1879.66 1690.67 1888.76C1683.11 1898 1673.03 1903.18 1662.39 1903.32H1661.27C1650.49 1903.18 1640.41 1898 1632.71 1888.76C1625.15 1879.52 1620.95 1867.2 1620.95 1854.18C1620.95 1841.16 1625.15 1828.84 1632.71 1819.6C1640.41 1810.36 1650.49 1805.18 1661.27 1805.04H1662.25C1670.79 1805.18 1678.91 1808.4 1685.63 1814.42C1692.49 1820.3 1697.39 1828.28 1700.19 1837.8L1700.47 1838.36H1710.27L1709.85 1837.24C1708.03 1832.34 1705.65 1827.72 1702.57 1823.66C1699.49 1819.6 1695.85 1815.96 1691.65 1812.88C1683.11 1806.72 1673.03 1803.36 1662.39 1803.22H1661.27C1654.41 1803.36 1647.83 1804.76 1641.53 1807.42C1635.51 1809.94 1630.19 1813.72 1625.57 1818.34C1620.95 1822.96 1617.31 1828.42 1614.79 1834.44C1612.13 1840.74 1610.87 1847.32 1610.87 1854.18ZM1724.81 1903.32V1905H1741.05V1903.32H1737.97V1805.04H1741.05V1803.22H1724.81V1805.04H1727.89V1903.32H1724.81ZM1792.12 1903.32H1766.36V1803.22H1753.2V1805.04H1756.28V1903.32H1753.2V1905H1808.08V1887.64H1806.26V1888.2C1806.26 1896.18 1800.1 1902.76 1792.12 1903.32ZM1895 1803.22H1884.64L1889.82 1819.88L1874 1891C1873.3 1894.22 1871.06 1897.3 1867.98 1899.68C1864.76 1901.92 1860.84 1903.32 1856.92 1903.32H1831.16V1803.22H1818V1805.04H1821.08V1903.32H1818V1905H1880.16V1903.32H1873.16L1880.16 1871.68H1905.78L1916.14 1905H1929.16V1903.32H1925.8L1895 1803.22ZM1880.58 1869.86L1890.94 1823.24L1905.22 1869.86H1880.58ZM2009.55 1871.12V1868.46H1974.13V1871.12H2009.55ZM2054.66 1803.22V1805.04H2057.74V1903.32H2054.66V1905H2055.22C2059 1905 2092.18 1905 2092.32 1905C2097.22 1905 2101.98 1903.88 2106.46 1901.92C2110.8 1899.82 2114.44 1897.02 2117.66 1893.52C2123.12 1887.22 2126.2 1879.1 2126.2 1870.84C2126.2 1862.44 2123.12 1854.46 2117.66 1848.16C2116.26 1846.62 2114.72 1845.08 2113.04 1843.82C2116.12 1839.48 2117.8 1834.3 2117.8 1828.98C2117.8 1821.98 2115.14 1815.54 2110.24 1810.64C2105.48 1805.88 2098.9 1803.22 2091.9 1803.22H2054.66ZM2092.32 1903.32C2092.18 1903.32 2092.04 1903.32 2091.9 1903.32H2067.82V1821.98C2069.22 1825.34 2071.18 1828.28 2073.7 1830.94C2078.6 1835.7 2085.04 1838.36 2091.9 1838.36H2092.18H2092.32C2095.68 1838.36 2099.04 1839.2 2102.12 1840.6C2105.06 1842 2107.72 1843.82 2109.96 1846.34C2113.74 1850.68 2115.98 1856.28 2116.12 1862.02V1879.52C2115.98 1885.82 2113.46 1891.7 2108.98 1896.18C2104.5 1900.66 2098.62 1903.18 2092.32 1903.32ZM2111.64 1842.7C2105.9 1838.78 2099.32 1836.54 2092.32 1836.54C2092.18 1836.54 2092.04 1836.54 2091.9 1836.54H2091.76C2085.46 1836.54 2079.44 1834.02 2074.96 1829.54C2070.48 1825.06 2067.96 1819.18 2067.82 1812.74V1805.04H2091.9C2098.34 1805.04 2104.36 1807.42 2108.98 1812.04C2113.46 1816.52 2115.98 1822.54 2115.98 1828.98C2115.98 1833.88 2114.44 1838.64 2111.64 1842.7ZM2150.85 1890.02C2155.47 1894.64 2160.79 1898.28 2166.81 1900.94C2173.11 1903.6 2179.69 1905 2186.55 1905H2187.53C2194.39 1905 2200.97 1903.6 2207.27 1900.94C2213.29 1898.28 2218.61 1894.64 2223.23 1890.02C2227.85 1885.26 2231.49 1879.8 2234.01 1873.78C2236.67 1867.62 2237.93 1860.9 2237.93 1854.18C2237.93 1847.32 2236.67 1840.6 2234.01 1834.44C2231.49 1828.42 2227.85 1822.96 2223.23 1818.34C2218.61 1813.58 2213.29 1809.94 2207.27 1807.28C2200.97 1804.62 2194.39 1803.22 2187.53 1803.22H2186.41C2179.69 1803.22 2173.11 1804.62 2166.81 1807.28C2160.79 1809.94 2155.47 1813.58 2150.85 1818.34C2146.23 1822.96 2142.59 1828.42 2140.07 1834.44C2137.41 1840.6 2136.15 1847.32 2136.15 1854.18C2136.15 1860.9 2137.41 1867.62 2140.07 1873.78C2142.59 1879.8 2146.23 1885.26 2150.85 1890.02ZM2187.53 1805.04C2198.31 1805.18 2208.39 1810.36 2215.95 1819.46C2223.65 1828.84 2227.85 1841.02 2227.85 1854.18C2227.85 1867.2 2223.65 1879.52 2215.95 1888.76C2208.39 1898 2198.31 1903.04 2187.53 1903.32H2186.55C2175.77 1903.04 2165.69 1898 2157.99 1888.76C2150.43 1879.52 2146.23 1867.2 2146.23 1854.18C2146.23 1841.02 2150.43 1828.84 2157.99 1819.46C2165.69 1810.36 2175.77 1805.18 2186.55 1805.04H2187.53ZM2286.9 1903.32H2261.14V1803.22H2247.98V1805.04H2251.06V1903.32H2247.98V1905H2302.86V1887.64H2301.04V1888.2C2301.04 1896.18 2294.88 1902.76 2286.9 1903.32ZM2312.79 1803.22V1805.04H2315.87V1903.32H2312.79V1905.14H2325.25L2325.95 1905H2326.09C2332.95 1905 2339.53 1903.6 2345.83 1900.94C2351.85 1898.28 2357.17 1894.64 2361.79 1890.02C2366.41 1885.26 2370.05 1879.8 2372.57 1873.78C2375.23 1867.62 2376.49 1860.9 2376.49 1854.18C2376.49 1847.32 2375.23 1840.6 2372.57 1834.44C2370.05 1828.42 2366.41 1822.96 2361.79 1818.34C2357.17 1813.58 2351.85 1809.94 2345.83 1807.28C2339.53 1804.62 2332.95 1803.22 2326.09 1803.22H2312.79ZM2325.95 1805.04H2326.09C2336.87 1805.18 2346.95 1810.36 2354.51 1819.46C2362.21 1828.84 2366.41 1841.02 2366.41 1854.18C2366.41 1867.2 2362.21 1879.52 2354.51 1888.76C2346.95 1898 2336.87 1903.04 2326.09 1903.32H2325.95V1805.04Z" fill="white"/>
<path d="M1560.78 2012.28C1559.24 2010.6 1557.56 2009.06 1555.74 2007.66C1558.96 2003.32 1560.64 1998.14 1560.64 1992.54C1560.64 1985.82 1558.12 1979.52 1553.36 1974.76C1548.6 1970 1542.16 1967.48 1535.44 1967.48H1498.9V1968.04H1501.98V2067.58H1498.9V2068C1498.9 2068 1535.72 2068 1535.86 2068C1540.76 2068 1545.38 2067.02 1549.72 2064.92C1553.92 2062.96 1557.7 2060.16 1560.78 2056.66C1566.1 2050.5 1569.18 2042.66 1569.18 2034.54C1569.18 2026.28 1566.1 2018.44 1560.78 2012.28ZM1510.8 1968.04H1535.44C1549.16 1968.04 1560.22 1978.96 1560.22 1992.54C1560.22 1998 1558.54 2003.04 1555.32 2007.38C1549.72 2003.18 1543 2000.94 1535.86 2000.94C1535.72 2000.94 1535.58 2000.94 1535.58 2000.94C1529 2000.94 1522.84 1998.28 1518.08 1993.8C1513.46 1989.18 1510.8 1983.02 1510.8 1976.44V1968.04ZM1553.08 2060.3C1548.46 2064.92 1542.3 2067.58 1535.86 2067.58C1535.72 2067.58 1535.58 2067.58 1535.58 2067.58H1510.8V1980.92C1511.64 1985.96 1514.16 1990.44 1517.8 1994.08C1522.56 1998.7 1528.86 2001.36 1535.58 2001.36C1535.58 2001.36 1535.72 2001.36 1535.86 2001.36C1539.36 2001.36 1542.72 2002.2 1545.94 2003.6C1549.02 2005 1551.68 2007.1 1553.92 2009.62C1557.98 2013.96 1560.22 2019.7 1560.36 2025.72V2043.22C1560.22 2049.66 1557.7 2055.82 1553.08 2060.3ZM1596.1 1968.04V1967.48H1581.12V1968.04H1584.2V2067.58H1581.12V2068H1596.1V2067.58H1593.02V1968.04H1596.1ZM1667.22 2018.02H1699.84C1699.7 2031.18 1695.5 2043.5 1687.8 2052.88C1680.1 2062.26 1669.88 2067.44 1658.96 2067.58H1657.84C1646.92 2067.44 1636.56 2062.26 1628.86 2052.88C1621.16 2043.5 1616.82 2031.04 1616.82 2017.88C1616.82 2004.58 1621.16 1992.26 1628.86 1982.88C1636.56 1973.5 1646.92 1968.18 1657.84 1968.04H1658.82C1667.5 1968.18 1675.76 1971.4 1682.76 1977.56C1689.62 1983.58 1694.66 1991.7 1697.46 2001.22V2001.36H1705.86L1705.72 2001.08C1704.04 1996.32 1701.66 1991.84 1698.58 1987.64C1695.64 1983.72 1692 1980.08 1687.94 1977.14C1679.4 1970.98 1669.46 1967.62 1658.96 1967.62H1657.84C1651.12 1967.62 1644.54 1969.02 1638.38 1971.68C1632.5 1974.2 1627.18 1977.84 1622.56 1982.46C1618.08 1987.08 1614.44 1992.4 1611.92 1998.42C1609.4 2004.58 1608.14 2011.16 1608.14 2017.88C1608.14 2024.6 1609.4 2031.18 1611.92 2037.34C1614.44 2043.22 1618.08 2048.54 1622.56 2053.16C1627.18 2057.78 1632.5 2061.42 1638.38 2064.08C1644.54 2066.6 1651.12 2068 1657.84 2068.14H1658.96C1667.36 2068 1675.76 2065.76 1683.04 2061.7C1690.18 2057.64 1696.2 2051.9 1700.68 2045.04C1700.82 2044.76 1700.96 2044.62 1701.1 2044.34V2044.2C1702.5 2042.1 1703.62 2040 1704.6 2037.62C1704.6 2037.62 1704.6 2037.62 1704.6 2037.48C1705.02 2036.78 1705.58 2036.5 1706.28 2036.5C1707.26 2036.5 1708.1 2037.34 1708.1 2038.32V2067.86H1708.66V2017.6H1667.22V2018.02ZM1735.69 1968.04V1967.48H1720.71V1968.04H1723.79V2067.58H1720.71V2068H1735.69V2067.58H1732.61V1968.04H1735.69ZM1800.79 2051.9C1800.79 2060.3 1794.35 2067.16 1785.95 2067.58H1759.63V1967.48H1747.73V1968.04H1750.81V2067.58H1747.73V2068H1801.21V2051.9H1800.79ZM1917.85 2067.58L1886.91 1967.48H1878.09L1882.99 1983.44L1867.17 2054.84C1866.33 2058.2 1864.09 2061.42 1860.87 2063.8C1857.51 2066.32 1853.45 2067.58 1849.53 2067.58H1823.07V1967.48H1811.17V1968.04H1814.25V2067.58H1811.17V2068H1871.93V2067.58H1864.79L1872.07 2034.68H1898.81L1909.17 2068H1920.93V2067.58H1917.85ZM1872.21 2034.26L1883.27 1984.42L1898.67 2034.26H1872.21ZM2000.09 2034.12V2032.72H1965.93V2034.12H2000.09ZM2098.57 2067.58L2083.17 2021.1L2074.91 2018.3C2080.65 2018.02 2085.97 2015.78 2090.17 2011.86C2095.63 2007.1 2098.57 2000.24 2098.57 1992.96C2098.57 1985.68 2095.63 1978.82 2090.17 1974.06C2085.69 1969.86 2079.81 1967.62 2073.65 1967.48H2045.09V1968.04H2048.17V2067.58H2045.09V2068H2060.07V2067.58H2056.99L2057.13 2035.1C2057.13 2026 2064.41 2018.58 2073.51 2018.44L2089.75 2067.58H2086.67V2068H2101.79V2067.58H2098.57ZM2073.65 2018.02C2065.39 2018.02 2058.53 2023.9 2056.99 2031.88V1968.04H2073.65C2077.57 1968.04 2081.35 1969.58 2084.29 1972.24C2087.79 1975.32 2089.75 1979.66 2089.89 1984.28V2001.64C2089.75 2006.26 2087.79 2010.6 2084.29 2013.68C2081.35 2016.34 2077.57 2018.02 2073.65 2018.02ZM2149.89 1968.04C2158.29 1968.46 2164.73 1975.32 2164.73 1983.72H2165.15V1967.48H2111.67V1968.04H2114.75V2067.58H2111.67V2068H2165.15V2051.9H2164.73C2164.73 2060.3 2158.29 2067.16 2149.89 2067.58H2123.57V2018.02H2140.37C2145.55 2018.3 2149.75 2022.64 2149.75 2027.96H2150.17V2007.66H2149.75C2149.75 2012.84 2145.55 2017.18 2140.37 2017.6H2123.57V1968.04H2149.89ZM2234.19 2018.02H2266.81C2266.67 2031.18 2262.47 2043.5 2254.77 2052.88C2247.07 2062.26 2236.85 2067.44 2225.93 2067.58H2224.81C2213.89 2067.44 2203.53 2062.26 2195.83 2052.88C2188.13 2043.5 2183.79 2031.04 2183.79 2017.88C2183.79 2004.58 2188.13 1992.26 2195.83 1982.88C2203.53 1973.5 2213.89 1968.18 2224.81 1968.04H2225.79C2234.47 1968.18 2242.73 1971.4 2249.73 1977.56C2256.59 1983.58 2261.63 1991.7 2264.43 2001.22V2001.36H2272.83L2272.69 2001.08C2271.01 1996.32 2268.63 1991.84 2265.55 1987.64C2262.61 1983.72 2258.97 1980.08 2254.91 1977.14C2246.37 1970.98 2236.43 1967.62 2225.93 1967.62H2224.81C2218.09 1967.62 2211.51 1969.02 2205.35 1971.68C2199.47 1974.2 2194.15 1977.84 2189.53 1982.46C2185.05 1987.08 2181.41 1992.4 2178.89 1998.42C2176.37 2004.58 2175.11 2011.16 2175.11 2017.88C2175.11 2024.6 2176.37 2031.18 2178.89 2037.34C2181.41 2043.22 2185.05 2048.54 2189.53 2053.16C2194.15 2057.78 2199.47 2061.42 2205.35 2064.08C2211.51 2066.6 2218.09 2068 2224.81 2068.14H2225.93C2234.33 2068 2242.73 2065.76 2250.01 2061.7C2257.15 2057.64 2263.17 2051.9 2267.65 2045.04C2267.79 2044.76 2267.93 2044.62 2268.07 2044.34V2044.2C2269.47 2042.1 2270.59 2040 2271.57 2037.62C2271.57 2037.62 2271.57 2037.62 2271.57 2037.48C2271.99 2036.78 2272.55 2036.5 2273.25 2036.5C2274.23 2036.5 2275.07 2037.34 2275.07 2038.32V2067.86H2275.63V2017.6H2234.19V2018.02ZM2323.24 1967.48V1968.04C2331.5 1968.46 2338.08 1975.32 2338.08 1983.72V2042.66C2338.08 2049.66 2335 2056.52 2329.82 2061.28C2325.34 2065.2 2319.6 2067.58 2313.58 2067.58C2309.66 2067.58 2305.88 2066.04 2302.94 2063.38C2299.44 2060.3 2297.48 2055.82 2297.48 2051.2V1968.04H2300.56V1967.48H2285.58V1968.04H2288.66V2042.66C2288.66 2049.8 2291.74 2056.8 2297.06 2061.56C2301.54 2065.76 2307.42 2068 2313.58 2068C2319.74 2068 2325.62 2065.76 2330.1 2061.56C2335.42 2056.8 2338.5 2049.8 2338.5 2042.66V1968.04H2341.58V1967.48H2323.24ZM2458.16 2067.58L2427.22 1967.48H2418.4L2423.3 1983.44L2407.48 2054.84C2406.64 2058.2 2404.4 2061.42 2401.18 2063.8C2397.82 2066.32 2393.76 2067.58 2389.84 2067.58H2363.38V1967.48H2351.48V1968.04H2354.56V2067.58H2351.48V2068H2412.24V2067.58H2405.1L2412.38 2034.68H2439.12L2449.48 2068H2461.24V2067.58H2458.16ZM2412.52 2034.26L2423.58 1984.42L2438.98 2034.26H2412.52ZM2524.72 2067.58L2509.32 2021.1L2501.06 2018.3C2506.8 2018.02 2512.12 2015.78 2516.32 2011.86C2521.78 2007.1 2524.72 2000.24 2524.72 1992.96C2524.72 1985.68 2521.78 1978.82 2516.32 1974.06C2511.84 1969.86 2505.96 1967.62 2499.8 1967.48H2471.24V1968.04H2474.32V2067.58H2471.24V2068H2486.22V2067.58H2483.14L2483.28 2035.1C2483.28 2026 2490.56 2018.58 2499.66 2018.44L2515.9 2067.58H2512.82V2068H2527.94V2067.58H2524.72ZM2499.8 2018.02C2491.54 2018.02 2484.68 2023.9 2483.14 2031.88V1968.04H2499.8C2503.72 1968.04 2507.5 1969.58 2510.44 1972.24C2513.94 1975.32 2515.9 1979.66 2516.04 1984.28V2001.64C2515.9 2006.26 2513.94 2010.6 2510.44 2013.68C2507.5 2016.34 2503.72 2018.02 2499.8 2018.02ZM2588.65 2067.58V2021.94C2588.65 2018.58 2587.95 2015.36 2586.41 2012.42C2584.87 2009.48 2582.77 2006.96 2580.25 2005.14C2576.61 2002.34 2572.41 2000.94 2567.93 2000.94C2567.93 2000.94 2567.65 2000.94 2567.51 2000.94C2563.03 2000.94 2558.55 2002.34 2554.91 2005.14C2552.39 2006.96 2550.29 2009.48 2548.75 2012.42C2547.21 2015.36 2546.51 2018.58 2546.51 2021.94C2546.51 2024.46 2546.93 2026.84 2547.77 2029.08C2547.21 2029.36 2546.65 2029.78 2546.23 2030.06C2543.57 2032.02 2541.47 2034.54 2540.07 2037.34C2538.53 2040.42 2537.83 2043.64 2537.83 2047C2537.83 2050.36 2538.53 2053.58 2540.07 2056.52C2541.47 2059.46 2543.57 2061.98 2546.23 2063.8C2549.73 2066.6 2554.07 2068 2558.55 2068C2558.69 2068 2558.69 2068 2558.83 2068C2563.59 2068 2567.93 2066.6 2571.71 2063.8C2574.37 2061.84 2576.47 2059.32 2578.01 2056.38C2578.85 2054.7 2579.41 2052.88 2579.83 2051.06V2068H2591.73V2067.58H2588.65ZM2579.83 2038.46V2046.58C2579.83 2049.94 2579.13 2053.16 2577.59 2056.1C2576.05 2059.04 2573.95 2061.42 2571.43 2063.38C2567.79 2066.18 2563.45 2067.58 2558.83 2067.58C2558.69 2067.58 2558.69 2067.58 2558.55 2067.58C2556.03 2067.58 2553.51 2066.74 2551.41 2065.2C2548.47 2062.82 2546.65 2059.46 2546.51 2055.68C2546.51 2055.54 2546.51 2055.4 2546.51 2055.26C2546.51 2055.26 2546.51 2055.12 2546.51 2054.98V2039.02C2546.51 2038.88 2546.51 2038.74 2546.51 2038.6C2546.51 2038.6 2546.51 2038.46 2546.51 2038.32C2546.65 2034.54 2548.47 2031.04 2551.41 2028.8C2553.51 2027.26 2556.03 2026.42 2558.55 2026.42H2567.51C2570.31 2026.42 2572.97 2025.44 2575.21 2023.76C2577.45 2022.08 2579.13 2019.7 2579.83 2017.04V2038.46ZM2579.83 2013.96C2579.69 2017.74 2578.01 2021.24 2574.93 2023.48C2572.83 2025.02 2570.31 2025.86 2567.51 2025.86H2558.55C2554.91 2026 2551.27 2026.98 2548.19 2028.8C2547.35 2026.56 2546.93 2024.32 2546.93 2021.94C2546.93 2018.72 2547.77 2015.5 2549.17 2012.56C2550.57 2009.76 2552.67 2007.38 2555.19 2005.42C2558.83 2002.76 2563.03 2001.36 2567.51 2001.36C2567.65 2001.36 2567.79 2001.36 2567.79 2001.36C2570.45 2001.36 2572.83 2002.2 2574.93 2003.74C2578.01 2006.12 2579.69 2009.48 2579.83 2013.26V2013.96Z" fill="white"/>
<path d="M2810.06 2027.74H2786.68V2068H2773.48V1968.47H2806.43C2817.64 1968.47 2826.26 1971.02 2832.27 1976.12C2838.33 1981.23 2841.37 1988.66 2841.37 1998.41C2841.37 2004.61 2839.68 2010.01 2836.31 2014.61C2832.98 2019.21 2828.33 2022.65 2822.36 2024.93L2845.74 2067.18V2068H2831.66L2810.06 2027.74ZM2786.68 2017H2806.84C2813.36 2017 2818.53 2015.32 2822.36 2011.95C2826.24 2008.57 2828.17 2004.06 2828.17 1998.41C2828.17 1992.26 2826.33 1987.54 2822.63 1984.26C2818.99 1980.98 2813.7 1979.32 2806.78 1979.27H2786.68V2017ZM2936.38 2021.45C2936.38 2031.2 2934.74 2039.72 2931.46 2047.01C2928.18 2054.26 2923.53 2059.8 2917.52 2063.62C2911.5 2067.45 2904.48 2069.37 2896.46 2069.37C2888.62 2069.37 2881.67 2067.45 2875.61 2063.62C2869.55 2059.75 2864.84 2054.26 2861.46 2047.15C2858.14 2040 2856.43 2031.72 2856.34 2022.34V2015.16C2856.34 2005.59 2858 1997.13 2861.33 1989.8C2864.65 1982.46 2869.35 1976.85 2875.41 1972.98C2881.51 1969.06 2888.49 1967.1 2896.33 1967.1C2904.3 1967.1 2911.32 1969.04 2917.38 1972.91C2923.49 1976.74 2928.18 1982.32 2931.46 1989.66C2934.74 1996.95 2936.38 2005.45 2936.38 2015.16V2021.45ZM2923.33 2015.02C2923.33 2003.22 2920.96 1994.17 2916.22 1987.88C2911.48 1981.55 2904.85 1978.38 2896.33 1978.38C2888.03 1978.38 2881.49 1981.55 2876.71 1987.88C2871.97 1994.17 2869.53 2002.92 2869.39 2014.13V2021.45C2869.39 2032.89 2871.79 2041.89 2876.57 2048.45C2881.4 2054.97 2888.03 2058.22 2896.46 2058.22C2904.94 2058.22 2911.5 2055.15 2916.15 2049C2920.8 2042.8 2923.19 2033.93 2923.33 2022.4V2015.02ZM2956.07 2068V1968.47H2988.61C2999.41 1968.47 3007.52 1970.7 3012.95 1975.17C3018.42 1979.63 3021.15 1986.24 3021.15 1994.99C3021.15 1999.64 3019.83 2003.76 3017.19 2007.37C3014.54 2010.92 3010.94 2013.68 3006.38 2015.64C3011.76 2017.14 3016 2020.01 3019.1 2024.25C3022.24 2028.44 3023.82 2033.46 3023.82 2039.29C3023.82 2048.22 3020.92 2055.24 3015.13 2060.34C3009.35 2065.45 3001.17 2068 2990.59 2068H2956.07ZM2969.2 2021.45V2057.27H2990.87C2996.97 2057.27 3001.78 2055.7 3005.29 2052.55C3008.85 2049.36 3010.62 2044.99 3010.62 2039.43C3010.62 2027.44 3004.11 2021.45 2991.07 2021.45H2969.2ZM2969.2 2010.92H2989.02C2994.76 2010.92 2999.34 2009.48 3002.76 2006.61C3006.23 2003.74 3007.96 1999.85 3007.96 1994.92C3007.96 1989.46 3006.36 1985.49 3003.17 1983.03C2999.98 1980.52 2995.13 1979.27 2988.61 1979.27H2969.2V2010.92ZM3119.86 2021.45C3119.86 2031.2 3118.22 2039.72 3114.94 2047.01C3111.66 2054.26 3107.01 2059.8 3100.99 2063.62C3094.98 2067.45 3087.96 2069.37 3079.94 2069.37C3072.1 2069.37 3065.15 2067.45 3059.09 2063.62C3053.03 2059.75 3048.31 2054.26 3044.94 2047.15C3041.61 2040 3039.9 2031.72 3039.81 2022.34V2015.16C3039.81 2005.59 3041.48 1997.13 3044.8 1989.8C3048.13 1982.46 3052.82 1976.85 3058.88 1972.98C3064.99 1969.06 3071.96 1967.1 3079.8 1967.1C3087.78 1967.1 3094.8 1969.04 3100.86 1972.91C3106.96 1976.74 3111.66 1982.32 3114.94 1989.66C3118.22 1996.95 3119.86 2005.45 3119.86 2015.16V2021.45ZM3106.8 2015.02C3106.8 2003.22 3104.43 1994.17 3099.7 1987.88C3094.96 1981.55 3088.32 1978.38 3079.8 1978.38C3071.51 1978.38 3064.97 1981.55 3060.18 1987.88C3055.44 1994.17 3053.01 2002.92 3052.87 2014.13V2021.45C3052.87 2032.89 3055.26 2041.89 3060.05 2048.45C3064.88 2054.97 3071.51 2058.22 3079.94 2058.22C3088.42 2058.22 3094.98 2055.15 3099.63 2049C3104.28 2042.8 3106.67 2033.93 3106.8 2022.4V2015.02ZM3206.4 1979.27H3174.41V2068H3161.36V1979.27H3129.43V1968.47H3206.4V1979.27ZM3295.82 2021.45C3295.82 2031.2 3294.18 2039.72 3290.9 2047.01C3287.62 2054.26 3282.97 2059.8 3276.95 2063.62C3270.94 2067.45 3263.92 2069.37 3255.9 2069.37C3248.06 2069.37 3241.11 2067.45 3235.05 2063.62C3228.99 2059.75 3224.27 2054.26 3220.9 2047.15C3217.57 2040 3215.86 2031.72 3215.77 2022.34V2015.16C3215.77 2005.59 3217.43 1997.13 3220.76 1989.8C3224.09 1982.46 3228.78 1976.85 3234.84 1972.98C3240.95 1969.06 3247.92 1967.1 3255.76 1967.1C3263.74 1967.1 3270.75 1969.04 3276.81 1972.91C3282.92 1976.74 3287.62 1982.32 3290.9 1989.66C3294.18 1996.95 3295.82 2005.45 3295.82 2015.16V2021.45ZM3282.76 2015.02C3282.76 2003.22 3280.39 1994.17 3275.65 1987.88C3270.91 1981.55 3264.28 1978.38 3255.76 1978.38C3247.47 1978.38 3240.93 1981.55 3236.14 1987.88C3231.4 1994.17 3228.96 2002.92 3228.83 2014.13V2021.45C3228.83 2032.89 3231.22 2041.89 3236 2048.45C3240.83 2054.97 3247.47 2058.22 3255.9 2058.22C3264.37 2058.22 3270.94 2055.15 3275.58 2049C3280.23 2042.8 3282.62 2033.93 3282.76 2022.4V2015.02ZM3374.57 2030.88H3341.21V2020.56H3374.57V2030.88ZM3460.15 2027.74H3436.78V2068H3423.58V1968.47H3456.53C3467.74 1968.47 3476.36 1971.02 3482.37 1976.12C3488.43 1981.23 3491.46 1988.66 3491.46 1998.41C3491.46 2004.61 3489.78 2010.01 3486.4 2014.61C3483.08 2019.21 3478.43 2022.65 3472.46 2024.93L3495.84 2067.18V2068H3481.76L3460.15 2027.74ZM3436.78 2017H3456.94C3463.46 2017 3468.63 2015.32 3472.46 2011.95C3476.33 2008.57 3478.27 2004.06 3478.27 1998.41C3478.27 1992.26 3476.42 1987.54 3472.73 1984.26C3469.09 1980.98 3463.8 1979.32 3456.87 1979.27H3436.78V2017ZM3566.18 2021.99H3523.04V2057.27H3573.15V2068H3509.92V1968.47H3572.47V1979.27H3523.04V2011.26H3566.18V2021.99ZM3662.98 2054.94C3659.6 2059.77 3654.89 2063.4 3648.83 2065.81C3642.81 2068.18 3635.79 2069.37 3627.77 2069.37C3619.66 2069.37 3612.46 2067.48 3606.17 2063.69C3599.88 2059.87 3595 2054.44 3591.54 2047.42C3588.12 2040.41 3586.37 2032.27 3586.28 2023.02V2014.34C3586.28 1999.34 3589.76 1987.72 3596.74 1979.47C3603.75 1971.23 3613.6 1967.1 3626.27 1967.1C3636.66 1967.1 3645.02 1969.77 3651.36 1975.1C3657.69 1980.39 3661.56 1987.91 3662.98 1997.66H3649.85C3647.39 1984.49 3639.55 1977.9 3626.34 1977.9C3617.54 1977.9 3610.86 1981 3606.31 1987.2C3601.79 1993.35 3599.52 2002.28 3599.47 2014V2022.13C3599.47 2033.3 3602.02 2042.18 3607.13 2048.79C3612.23 2055.35 3619.14 2058.63 3627.84 2058.63C3632.76 2058.63 3637.07 2058.09 3640.76 2056.99C3644.45 2055.9 3647.5 2054.05 3649.92 2051.46V2029.1H3626.88V2018.44H3662.98V2054.94ZM3754.99 1968.47V2036.14C3754.94 2045.53 3751.98 2053.21 3746.1 2059.18C3740.27 2065.15 3732.34 2068.5 3722.31 2069.23L3718.83 2069.37C3707.93 2069.37 3699.25 2066.43 3692.78 2060.55C3686.31 2054.67 3683.03 2046.58 3682.94 2036.28V1968.47H3695.93V2035.87C3695.93 2043.07 3697.91 2048.68 3701.87 2052.69C3705.84 2056.65 3711.49 2058.63 3718.83 2058.63C3726.25 2058.63 3731.93 2056.65 3735.85 2052.69C3739.81 2048.72 3741.79 2043.14 3741.79 2035.94V1968.47H3754.99ZM3788.89 2057.27H3836.06V2068H3775.7V1968.47H3788.89V2057.27ZM3907.36 2042.02H3865.66L3856.3 2068H3842.76L3880.77 1968.47H3892.25L3930.33 2068H3916.86L3907.36 2042.02ZM3869.63 2031.22H3903.46L3886.51 1984.67L3869.63 2031.22ZM3980.23 2027.74H3956.85V2068H3943.66V1968.47H3976.61C3987.82 1968.47 3996.43 1971.02 4002.45 1976.12C4008.51 1981.23 4011.54 1988.66 4011.54 1998.41C4011.54 2004.61 4009.85 2010.01 4006.48 2014.61C4003.16 2019.21 3998.51 2022.65 3992.54 2024.93L4015.92 2067.18V2068H4001.83L3980.23 2027.74ZM3956.85 2017H3977.02C3983.54 2017 3988.71 2015.32 3992.54 2011.95C3996.41 2008.57 3998.35 2004.06 3998.35 1998.41C3998.35 1992.26 3996.5 1987.54 3992.81 1984.26C3989.16 1980.98 3983.88 1979.32 3976.95 1979.27H3956.85V2017Z" fill="white"/>
<path d="M3522.78 1874.65H3503.5V1913H3486.21V1813.47H3521.21C3532.69 1813.47 3541.56 1816.04 3547.8 1821.19C3554.04 1826.34 3557.16 1833.79 3557.16 1843.55C3557.16 1850.2 3555.55 1855.78 3552.31 1860.29C3549.12 1864.76 3544.65 1868.2 3538.91 1870.62L3561.27 1912.11V1913H3542.74L3522.78 1874.65ZM3503.5 1860.77H3521.28C3527.11 1860.77 3531.67 1859.32 3534.95 1856.4C3538.23 1853.44 3539.87 1849.4 3539.87 1844.3C3539.87 1838.97 3538.34 1834.84 3535.29 1831.93C3532.28 1829.01 3527.77 1827.51 3521.75 1827.41H3503.5V1860.77ZM3653 1865.83C3653 1875.58 3651.32 1884.15 3647.95 1891.54C3644.57 1898.87 3639.74 1904.52 3633.45 1908.49C3627.21 1912.41 3620.01 1914.37 3611.85 1914.37C3603.79 1914.37 3596.58 1912.41 3590.25 1908.49C3583.96 1904.52 3579.08 1898.9 3575.62 1891.6C3572.2 1884.31 3570.47 1875.9 3570.43 1866.38V1860.77C3570.43 1851.07 3572.13 1842.5 3575.55 1835.07C3579.02 1827.64 3583.87 1821.97 3590.11 1818.05C3596.4 1814.08 3603.6 1812.1 3611.71 1812.1C3619.83 1812.1 3627 1814.06 3633.25 1817.98C3639.54 1821.85 3644.39 1827.46 3647.81 1834.8C3651.23 1842.09 3652.96 1850.59 3653 1860.29V1865.83ZM3635.71 1860.64C3635.71 1849.61 3633.61 1841.15 3629.42 1835.28C3625.27 1829.4 3619.37 1826.46 3611.71 1826.46C3604.24 1826.46 3598.38 1829.4 3594.15 1835.28C3589.95 1841.11 3587.81 1849.38 3587.72 1860.09V1865.83C3587.72 1876.77 3589.84 1885.22 3594.08 1891.19C3598.36 1897.16 3604.29 1900.15 3611.85 1900.15C3619.51 1900.15 3625.39 1897.23 3629.49 1891.4C3633.64 1885.57 3635.71 1877.04 3635.71 1865.83V1860.64ZM3670.23 1913V1813.47H3704.34C3715.6 1813.47 3724.17 1815.72 3730.04 1820.24C3735.92 1824.75 3738.86 1831.47 3738.86 1840.4C3738.86 1844.96 3737.63 1849.06 3735.17 1852.71C3732.71 1856.35 3729.11 1859.18 3724.37 1861.18C3729.75 1862.64 3733.9 1865.4 3736.81 1869.46C3739.77 1873.47 3741.26 1878.3 3741.26 1883.95C3741.26 1893.29 3738.25 1900.47 3732.23 1905.48C3726.26 1910.49 3717.69 1913 3706.53 1913H3670.23ZM3687.53 1868.09V1899.19H3706.73C3712.16 1899.19 3716.4 1897.85 3719.45 1895.16C3722.5 1892.47 3724.03 1888.73 3724.03 1883.95C3724.03 1873.6 3718.74 1868.32 3708.17 1868.09H3687.53ZM3687.53 1855.37H3704.48C3709.86 1855.37 3714.05 1854.17 3717.06 1851.75C3720.11 1849.29 3721.64 1845.83 3721.64 1841.36C3721.64 1836.44 3720.22 1832.88 3717.4 1830.7C3714.62 1828.51 3710.27 1827.41 3704.34 1827.41H3687.53V1855.37ZM3837.98 1865.83C3837.98 1875.58 3836.3 1884.15 3832.93 1891.54C3829.55 1898.87 3824.72 1904.52 3818.43 1908.49C3812.19 1912.41 3804.99 1914.37 3796.83 1914.37C3788.77 1914.37 3781.57 1912.41 3775.23 1908.49C3768.94 1904.52 3764.07 1898.9 3760.6 1891.6C3757.18 1884.31 3755.45 1875.9 3755.41 1866.38V1860.77C3755.41 1851.07 3757.12 1842.5 3760.53 1835.07C3764 1827.64 3768.85 1821.97 3775.09 1818.05C3781.38 1814.08 3788.58 1812.1 3796.7 1812.1C3804.81 1812.1 3811.99 1814.06 3818.23 1817.98C3824.52 1821.85 3829.37 1827.46 3832.79 1834.8C3836.21 1842.09 3837.94 1850.59 3837.98 1860.29V1865.83ZM3820.69 1860.64C3820.69 1849.61 3818.59 1841.15 3814.4 1835.28C3810.25 1829.4 3804.35 1826.46 3796.7 1826.46C3789.22 1826.46 3783.37 1829.4 3779.13 1835.28C3774.93 1841.11 3772.79 1849.38 3772.7 1860.09V1865.83C3772.7 1876.77 3774.82 1885.22 3779.06 1891.19C3783.34 1897.16 3789.27 1900.15 3796.83 1900.15C3804.49 1900.15 3810.37 1897.23 3814.47 1891.4C3818.62 1885.57 3820.69 1877.04 3820.69 1865.83V1860.64ZM3921.25 1827.41H3890.21V1913H3873.05V1827.41H3842.29V1813.47H3921.25V1827.41ZM4011.89 1865.83C4011.89 1875.58 4010.2 1884.15 4006.83 1891.54C4003.46 1898.87 3998.63 1904.52 3992.34 1908.49C3986.1 1912.41 3978.9 1914.37 3970.74 1914.37C3962.67 1914.37 3955.47 1912.41 3949.14 1908.49C3942.85 1904.52 3937.97 1898.9 3934.51 1891.6C3931.09 1884.31 3929.36 1875.9 3929.31 1866.38V1860.77C3929.31 1851.07 3931.02 1842.5 3934.44 1835.07C3937.9 1827.64 3942.76 1821.97 3949 1818.05C3955.29 1814.08 3962.49 1812.1 3970.6 1812.1C3978.71 1812.1 3985.89 1814.06 3992.13 1817.98C3998.42 1821.85 4003.28 1827.46 4006.7 1834.8C4010.11 1842.09 4011.85 1850.59 4011.89 1860.29V1865.83ZM3994.6 1860.64C3994.6 1849.61 3992.5 1841.15 3988.31 1835.28C3984.16 1829.4 3978.26 1826.46 3970.6 1826.46C3963.13 1826.46 3957.27 1829.4 3953.03 1835.28C3948.84 1841.11 3946.7 1849.38 3946.61 1860.09V1865.83C3946.61 1876.77 3948.73 1885.22 3952.96 1891.19C3957.25 1897.16 3963.17 1900.15 3970.74 1900.15C3978.39 1900.15 3984.27 1897.23 3988.38 1891.4C3992.52 1885.57 3994.6 1877.04 3994.6 1865.83V1860.64Z" fill="white"/>
<path d="M2092.16 1041.16L2090.55 1049.07H2099.37V1056.14H2089.22L2086.56 1070H2079.07L2081.73 1056.14H2075.08L2072.49 1070H2065.14L2067.66 1056.14H2059.54V1049.07H2068.99L2070.6 1041.16H2061.99V1034.02H2071.86L2074.52 1020.09H2082.01L2079.35 1034.02H2086.14L2088.8 1020.09H2096.15L2093.49 1034.02H2101.68V1041.16H2092.16ZM2076.41 1049.07H2083.13L2084.74 1041.16H2078.02L2076.41 1049.07ZM2105.7 1069.16V1070H2113.82V1069.16H2112.28V1045.01H2120.33C2122.78 1045.15 2124.74 1047.18 2124.74 1049.63V1049.98H2125.65V1039.13H2124.74V1039.48C2124.74 1041.93 2122.78 1043.96 2120.33 1044.1H2112.28V1020.02H2125.16C2129.15 1020.23 2132.23 1023.52 2132.23 1027.51V1027.86H2133.14V1019.11H2105.7V1020.02H2107.24V1069.16H2105.7ZM2130.04 1069.16V1070H2138.16V1069.16H2136.62V1045.01H2144.67C2147.12 1045.15 2149.08 1047.18 2149.08 1049.63V1049.98H2149.99V1039.13H2149.08V1039.48C2149.08 1041.93 2147.12 1043.96 2144.67 1044.1H2136.62V1020.02H2149.5C2153.49 1020.23 2156.57 1023.52 2156.57 1027.51V1027.86H2157.48V1019.11H2130.04V1020.02H2131.58V1069.16H2130.04ZM2154.38 1069.16V1070H2162.5V1069.16H2160.96V1045.01H2169.01C2171.46 1045.15 2173.42 1047.18 2173.42 1049.63V1049.98H2174.33V1039.13H2173.42V1039.48C2173.42 1041.93 2171.46 1043.96 2169.01 1044.1H2160.96V1020.02H2173.84C2177.83 1020.23 2180.91 1023.52 2180.91 1027.51V1027.86H2181.82V1019.11H2154.38V1020.02H2155.92V1069.16H2154.38ZM2178.71 1069.16V1070H2186.83V1069.16H2185.29V1045.01H2193.34C2195.79 1045.15 2197.75 1047.18 2197.75 1049.63V1049.98H2198.66V1039.13H2197.75V1039.48C2197.75 1041.93 2195.79 1043.96 2193.34 1044.1H2185.29V1020.02H2198.17C2202.16 1020.23 2205.24 1023.52 2205.24 1027.51V1027.86H2206.15V1019.11H2178.71V1020.02H2180.25V1069.16H2178.71ZM2203.05 1069.16V1070H2211.17V1069.16H2209.63V1045.01H2217.68C2220.13 1045.15 2222.09 1047.18 2222.09 1049.63V1049.98H2223V1039.13H2222.09V1039.48C2222.09 1041.93 2220.13 1043.96 2217.68 1044.1H2209.63V1020.02H2222.51C2226.5 1020.23 2229.58 1023.52 2229.58 1027.51V1027.86H2230.49V1019.11H2203.05V1020.02H2204.59V1069.16H2203.05ZM2227.38 1069.16V1070H2235.5V1069.16H2233.96V1045.01H2242.01C2244.46 1045.15 2246.42 1047.18 2246.42 1049.63V1049.98H2247.33V1039.13H2246.42V1039.48C2246.42 1041.93 2244.46 1043.96 2242.01 1044.1H2233.96V1020.02H2246.84C2250.83 1020.23 2253.91 1023.52 2253.91 1027.51V1027.86H2254.82V1019.11H2227.38V1020.02H2228.92V1069.16H2227.38Z" fill="black"/>
<path d="M2684.16 1041.16L2682.55 1049.07H2691.37V1056.14H2681.22L2678.56 1070H2671.07L2673.73 1056.14H2667.08L2664.49 1070H2657.14L2659.66 1056.14H2651.54V1049.07H2660.99L2662.6 1041.16H2653.99V1034.02H2663.86L2666.52 1020.09H2674.01L2671.35 1034.02H2678.14L2680.8 1020.09H2688.15L2685.49 1034.02H2693.68V1041.16H2684.16ZM2668.41 1049.07H2675.13L2676.74 1041.16H2670.02L2668.41 1049.07ZM2697.7 1069.16V1070H2705.82V1069.16H2704.28V1045.01H2712.33C2714.78 1045.15 2716.74 1047.18 2716.74 1049.63V1049.98H2717.65V1039.13H2716.74V1039.48C2716.74 1041.93 2714.78 1043.96 2712.33 1044.1H2704.28V1020.02H2717.16C2721.15 1020.23 2724.23 1023.52 2724.23 1027.51V1027.86H2725.14V1019.11H2697.7V1020.02H2699.24V1069.16H2697.7ZM2747.66 1027.86V1019.11H2722.04V1049.28H2727.08V1044.45C2727.15 1042.35 2727.99 1040.39 2729.46 1038.92C2731 1037.45 2732.96 1036.68 2734.99 1036.68C2735.06 1036.68 2735.06 1036.68 2735.06 1036.68C2736.95 1036.68 2738.84 1037.45 2740.24 1038.71C2741.85 1040.18 2742.83 1042.28 2742.83 1044.52V1061.32C2742.83 1063.49 2741.85 1065.66 2740.24 1067.13C2738.84 1068.39 2737.02 1069.09 2735.13 1069.16H2734.99H2734.85C2732.96 1069.09 2731.14 1068.39 2729.74 1067.13C2728.06 1065.66 2727.08 1063.49 2727.08 1061.32V1056.56H2722.04V1056.98C2722.04 1060.69 2723.58 1064.26 2726.31 1066.71C2728.69 1068.81 2731.7 1070 2734.78 1070H2734.99H2735.13C2738.28 1070 2741.29 1068.81 2743.6 1066.71C2746.33 1064.26 2747.94 1060.69 2747.94 1056.98V1048.86C2747.94 1045.15 2746.33 1041.58 2743.6 1039.13C2741.29 1036.96 2738.21 1035.77 2735.13 1035.77C2735.13 1035.77 2735.06 1035.77 2734.99 1035.77C2732.96 1035.77 2731.07 1036.47 2729.53 1037.73C2728.48 1038.5 2727.64 1039.55 2727.08 1040.74V1020.02H2739.68C2743.67 1020.23 2746.75 1023.52 2746.75 1027.51V1027.86H2747.66ZM2752.94 1069.16V1070H2761.06V1069.16H2759.52V1045.01H2767.57C2770.02 1045.15 2771.98 1047.18 2771.98 1049.63V1049.98H2772.89V1039.13H2771.98V1039.48C2771.98 1041.93 2770.02 1043.96 2767.57 1044.1H2759.52V1020.02H2772.4C2776.39 1020.23 2779.47 1023.52 2779.47 1027.51V1027.86H2780.38V1019.11H2752.94V1020.02H2754.48V1069.16H2752.94ZM2777.27 1052.29V1058.8H2797.78V1069.16H2796.24V1070H2804.43V1069.16H2802.89V1058.8H2804.43V1057.89H2802.89V1018.2L2777.27 1052.29ZM2801.98 1027.23V1044.31H2797.78V1057.89H2778.6L2801.98 1027.23ZM2809.33 1069.16V1070H2836.77V1061.32H2835.86V1061.6C2835.86 1065.59 2832.78 1068.88 2828.79 1069.16H2815.91V1045.01H2823.96C2826.41 1045.15 2828.37 1047.18 2828.37 1049.63V1049.98H2829.28V1039.13H2828.37V1039.48C2828.37 1041.93 2826.41 1043.96 2823.96 1044.1H2815.91V1020.02H2828.79C2832.78 1020.23 2835.86 1023.52 2835.86 1027.51V1027.86H2836.77V1019.11H2809.33V1020.02H2810.87V1069.16H2809.33ZM2841.74 1069.16V1070H2849.86V1069.16H2848.32V1045.01H2856.37C2858.82 1045.15 2860.78 1047.18 2860.78 1049.63V1049.98H2861.69V1039.13H2860.78V1039.48C2860.78 1041.93 2858.82 1043.96 2856.37 1044.1H2848.32V1020.02H2861.2C2865.19 1020.23 2868.27 1023.52 2868.27 1027.51V1027.86H2869.18V1019.11H2841.74V1020.02H2843.28V1069.16H2841.74Z" fill="black"/>
<path d="M3279.16 1041.16L3277.55 1049.07H3286.37V1056.14H3276.22L3273.56 1070H3266.07L3268.73 1056.14H3262.08L3259.49 1070H3252.14L3254.66 1056.14H3246.54V1049.07H3255.99L3257.6 1041.16H3248.99V1034.02H3258.86L3261.52 1020.09H3269.01L3266.35 1034.02H3273.14L3275.8 1020.09H3283.15L3280.49 1034.02H3288.68V1041.16H3279.16ZM3263.41 1049.07H3270.13L3271.74 1041.16H3265.02L3263.41 1049.07ZM3314.05 1022.4C3311.67 1020.3 3308.66 1019.11 3305.51 1019.11C3302.36 1019.11 3299.35 1020.3 3296.97 1022.4C3294.24 1024.92 3292.7 1028.42 3292.7 1032.13V1056.98C3292.7 1060.69 3294.24 1064.26 3296.97 1066.71C3299.35 1068.81 3302.36 1070 3305.44 1070H3305.51H3305.58C3308.66 1070 3311.67 1068.81 3314.05 1066.71C3316.78 1064.26 3318.32 1060.69 3318.32 1056.98V1032.13C3318.32 1028.42 3316.78 1024.92 3314.05 1022.4ZM3305.51 1069.16C3303.62 1069.09 3301.8 1068.39 3300.4 1067.13C3298.72 1065.66 3297.74 1063.49 3297.74 1061.32V1032.34C3297.74 1031.99 3298.02 1031.71 3298.3 1031.71C3298.58 1031.71 3298.72 1031.85 3298.86 1032.06L3313.28 1061.39C3313.21 1063.56 3312.23 1065.66 3310.62 1067.13C3309.22 1068.39 3307.4 1069.09 3305.51 1069.16ZM3313.28 1056.84C3313.28 1057.12 3313 1057.4 3312.65 1057.4C3312.44 1057.4 3312.3 1057.26 3312.16 1057.12L3297.74 1027.72C3297.81 1025.55 3298.72 1023.45 3300.4 1021.98C3301.8 1020.72 3303.62 1020.02 3305.51 1020.02C3307.4 1020.02 3309.22 1020.72 3310.62 1021.98C3312.3 1023.52 3313.28 1025.62 3313.28 1027.86V1056.84ZM3344.61 1022.4C3342.23 1020.3 3339.22 1019.11 3336.07 1019.11C3332.92 1019.11 3329.91 1020.3 3327.53 1022.4C3324.8 1024.92 3323.26 1028.42 3323.26 1032.13V1056.98C3323.26 1060.69 3324.8 1064.26 3327.53 1066.71C3329.91 1068.81 3332.92 1070 3336 1070H3336.07H3336.14C3339.22 1070 3342.23 1068.81 3344.61 1066.71C3347.34 1064.26 3348.88 1060.69 3348.88 1056.98V1032.13C3348.88 1028.42 3347.34 1024.92 3344.61 1022.4ZM3336.07 1069.16C3334.18 1069.09 3332.36 1068.39 3330.96 1067.13C3329.28 1065.66 3328.3 1063.49 3328.3 1061.32V1032.34C3328.3 1031.99 3328.58 1031.71 3328.86 1031.71C3329.14 1031.71 3329.28 1031.85 3329.42 1032.06L3343.84 1061.39C3343.77 1063.56 3342.79 1065.66 3341.18 1067.13C3339.78 1068.39 3337.96 1069.09 3336.07 1069.16ZM3343.84 1056.84C3343.84 1057.12 3343.56 1057.4 3343.21 1057.4C3343 1057.4 3342.86 1057.26 3342.72 1057.12L3328.3 1027.72C3328.37 1025.55 3329.28 1023.45 3330.96 1021.98C3332.36 1020.72 3334.18 1020.02 3336.07 1020.02C3337.96 1020.02 3339.78 1020.72 3341.18 1021.98C3342.86 1023.52 3343.84 1025.62 3343.84 1027.86V1056.84ZM3375.17 1022.4C3372.79 1020.3 3369.78 1019.11 3366.63 1019.11C3363.48 1019.11 3360.47 1020.3 3358.09 1022.4C3355.36 1024.92 3353.82 1028.42 3353.82 1032.13V1056.98C3353.82 1060.69 3355.36 1064.26 3358.09 1066.71C3360.47 1068.81 3363.48 1070 3366.56 1070H3366.63H3366.7C3369.78 1070 3372.79 1068.81 3375.17 1066.71C3377.9 1064.26 3379.44 1060.69 3379.44 1056.98V1032.13C3379.44 1028.42 3377.9 1024.92 3375.17 1022.4ZM3366.63 1069.16C3364.74 1069.09 3362.92 1068.39 3361.52 1067.13C3359.84 1065.66 3358.86 1063.49 3358.86 1061.32V1032.34C3358.86 1031.99 3359.14 1031.71 3359.42 1031.71C3359.7 1031.71 3359.84 1031.85 3359.98 1032.06L3374.4 1061.39C3374.33 1063.56 3373.35 1065.66 3371.74 1067.13C3370.34 1068.39 3368.52 1069.09 3366.63 1069.16ZM3374.4 1056.84C3374.4 1057.12 3374.12 1057.4 3373.77 1057.4C3373.56 1057.4 3373.42 1057.26 3373.28 1057.12L3358.86 1027.72C3358.93 1025.55 3359.84 1023.45 3361.52 1021.98C3362.92 1020.72 3364.74 1020.02 3366.63 1020.02C3368.52 1020.02 3370.34 1020.72 3371.74 1021.98C3373.42 1023.52 3374.4 1025.62 3374.4 1027.86V1056.84ZM3405.72 1022.4C3403.34 1020.3 3400.33 1019.11 3397.18 1019.11C3394.03 1019.11 3391.02 1020.3 3388.64 1022.4C3385.91 1024.92 3384.37 1028.42 3384.37 1032.13V1056.98C3384.37 1060.69 3385.91 1064.26 3388.64 1066.71C3391.02 1068.81 3394.03 1070 3397.11 1070H3397.18H3397.25C3400.33 1070 3403.34 1068.81 3405.72 1066.71C3408.45 1064.26 3409.99 1060.69 3409.99 1056.98V1032.13C3409.99 1028.42 3408.45 1024.92 3405.72 1022.4ZM3397.18 1069.16C3395.29 1069.09 3393.47 1068.39 3392.07 1067.13C3390.39 1065.66 3389.41 1063.49 3389.41 1061.32V1032.34C3389.41 1031.99 3389.69 1031.71 3389.97 1031.71C3390.25 1031.71 3390.39 1031.85 3390.53 1032.06L3404.95 1061.39C3404.88 1063.56 3403.9 1065.66 3402.29 1067.13C3400.89 1068.39 3399.07 1069.09 3397.18 1069.16ZM3404.95 1056.84C3404.95 1057.12 3404.67 1057.4 3404.32 1057.4C3404.11 1057.4 3403.97 1057.26 3403.83 1057.12L3389.41 1027.72C3389.48 1025.55 3390.39 1023.45 3392.07 1021.98C3393.47 1020.72 3395.29 1020.02 3397.18 1020.02C3399.07 1020.02 3400.89 1020.72 3402.29 1021.98C3403.97 1023.52 3404.95 1025.62 3404.95 1027.86V1056.84ZM3436.28 1022.4C3433.9 1020.3 3430.89 1019.11 3427.74 1019.11C3424.59 1019.11 3421.58 1020.3 3419.2 1022.4C3416.47 1024.92 3414.93 1028.42 3414.93 1032.13V1056.98C3414.93 1060.69 3416.47 1064.26 3419.2 1066.71C3421.58 1068.81 3424.59 1070 3427.67 1070H3427.74H3427.81C3430.89 1070 3433.9 1068.81 3436.28 1066.71C3439.01 1064.26 3440.55 1060.69 3440.55 1056.98V1032.13C3440.55 1028.42 3439.01 1024.92 3436.28 1022.4ZM3427.74 1069.16C3425.85 1069.09 3424.03 1068.39 3422.63 1067.13C3420.95 1065.66 3419.97 1063.49 3419.97 1061.32V1032.34C3419.97 1031.99 3420.25 1031.71 3420.53 1031.71C3420.81 1031.71 3420.95 1031.85 3421.09 1032.06L3435.51 1061.39C3435.44 1063.56 3434.46 1065.66 3432.85 1067.13C3431.45 1068.39 3429.63 1069.09 3427.74 1069.16ZM3435.51 1056.84C3435.51 1057.12 3435.23 1057.4 3434.88 1057.4C3434.67 1057.4 3434.53 1057.26 3434.39 1057.12L3419.97 1027.72C3420.04 1025.55 3420.95 1023.45 3422.63 1021.98C3424.03 1020.72 3425.85 1020.02 3427.74 1020.02C3429.63 1020.02 3431.45 1020.72 3432.85 1021.98C3434.53 1023.52 3435.51 1025.62 3435.51 1027.86V1056.84ZM3466.84 1022.4C3464.46 1020.3 3461.45 1019.11 3458.3 1019.11C3455.15 1019.11 3452.14 1020.3 3449.76 1022.4C3447.03 1024.92 3445.49 1028.42 3445.49 1032.13V1056.98C3445.49 1060.69 3447.03 1064.26 3449.76 1066.71C3452.14 1068.81 3455.15 1070 3458.23 1070H3458.3H3458.37C3461.45 1070 3464.46 1068.81 3466.84 1066.71C3469.57 1064.26 3471.11 1060.69 3471.11 1056.98V1032.13C3471.11 1028.42 3469.57 1024.92 3466.84 1022.4ZM3458.3 1069.16C3456.41 1069.09 3454.59 1068.39 3453.19 1067.13C3451.51 1065.66 3450.53 1063.49 3450.53 1061.32V1032.34C3450.53 1031.99 3450.81 1031.71 3451.09 1031.71C3451.37 1031.71 3451.51 1031.85 3451.65 1032.06L3466.07 1061.39C3466 1063.56 3465.02 1065.66 3463.41 1067.13C3462.01 1068.39 3460.19 1069.09 3458.3 1069.16ZM3466.07 1056.84C3466.07 1057.12 3465.79 1057.4 3465.44 1057.4C3465.23 1057.4 3465.09 1057.26 3464.95 1057.12L3450.53 1027.72C3450.6 1025.55 3451.51 1023.45 3453.19 1021.98C3454.59 1020.72 3456.41 1020.02 3458.3 1020.02C3460.19 1020.02 3462.01 1020.72 3463.41 1021.98C3465.09 1023.52 3466.07 1025.62 3466.07 1027.86V1056.84Z" fill="white"/>
</svg>
