<svg width="3816" height="1544" viewBox="0 0 3816 1544" fill="none" xmlns="http://www.w3.org/2000/svg">
<rect width="3816" height="1544" fill="#1A1A1A"/>
<path d="M1522.9 808.9L1445.9 576.5L1404.6 562.5C1433.3 561.1 1459.9 549.9 1480.9 530.3C1508.2 506.5 1522.9 472.2 1522.9 435.8C1522.9 399.4 1508.2 365.1 1480.9 341.3C1458.5 320.3 1429.1 309.1 1398.3 308.4H1255.5V311.2H1270.9V808.9H1255.5V811H1330.4V808.9H1315L1315.7 646.5C1315.7 601 1352.1 563.9 1397.6 563.2L1478.8 808.9H1463.4V811H1539V808.9H1522.9ZM1398.3 561.1C1357 561.1 1322.7 590.5 1315 630.4V311.2H1398.3C1417.9 311.2 1436.8 318.9 1451.5 332.2C1469 347.6 1478.8 369.3 1479.5 392.4V479.2C1478.8 502.3 1469 524 1451.5 539.4C1436.8 552.7 1417.9 561.1 1398.3 561.1ZM1842.51 808.9V580.7C1842.51 563.9 1839.01 547.8 1831.31 533.1C1823.61 518.4 1813.11 505.8 1800.51 496.7C1782.31 482.7 1761.31 475.7 1738.91 475.7C1738.91 475.7 1737.51 475.7 1736.81 475.7C1714.41 475.7 1692.01 482.7 1673.81 496.7C1661.21 505.8 1650.71 518.4 1643.01 533.1C1635.31 547.8 1631.81 563.9 1631.81 580.7C1631.81 593.3 1633.91 605.2 1638.11 616.4C1635.31 617.8 1632.51 619.9 1630.41 621.3C1617.11 631.1 1606.61 643.7 1599.61 657.7C1591.91 673.1 1588.41 689.2 1588.41 706C1588.41 722.8 1591.91 738.9 1599.61 753.6C1606.61 768.3 1617.11 780.9 1630.41 790C1647.91 804 1669.61 811 1692.01 811C1692.71 811 1692.71 811 1693.41 811C1717.21 811 1738.91 804 1757.81 790C1771.11 780.2 1781.61 767.6 1789.31 752.9C1793.51 744.5 1796.31 735.4 1798.41 726.3V811H1857.91V808.9H1842.51ZM1798.41 663.3V703.9C1798.41 720.7 1794.91 736.8 1787.21 751.5C1779.51 766.2 1769.01 778.1 1756.41 787.9C1738.21 801.9 1716.51 808.9 1693.41 808.9C1692.71 808.9 1692.71 808.9 1692.01 808.9C1679.41 808.9 1666.81 804.7 1656.31 797C1641.61 785.1 1632.51 768.3 1631.81 749.4C1631.81 748.7 1631.81 748 1631.81 747.3C1631.81 747.3 1631.81 746.6 1631.81 745.9V666.1C1631.81 665.4 1631.81 664.7 1631.81 664C1631.81 664 1631.81 663.3 1631.81 662.6C1632.51 643.7 1641.61 626.2 1656.31 615C1666.81 607.3 1679.41 603.1 1692.01 603.1H1736.81C1750.81 603.1 1764.11 598.2 1775.31 589.8C1786.51 581.4 1794.91 569.5 1798.41 556.2V663.3ZM1798.41 540.8C1797.71 559.7 1789.31 577.2 1773.91 588.4C1763.41 596.1 1750.81 600.3 1736.81 600.3H1692.01C1673.81 601 1655.61 605.9 1640.21 615C1636.01 603.8 1633.91 592.6 1633.91 580.7C1633.91 564.6 1638.11 548.5 1645.11 533.8C1652.11 519.8 1662.61 507.9 1675.21 498.1C1693.41 484.8 1714.41 477.8 1736.81 477.8C1737.51 477.8 1738.21 477.8 1738.21 477.8C1751.51 477.8 1763.41 482 1773.91 489.7C1789.31 501.6 1797.71 518.4 1798.41 537.3V540.8ZM2161.75 808.9V580.7C2161.75 563.9 2158.25 547.8 2150.55 533.1C2142.85 518.4 2132.35 505.8 2119.75 496.7C2101.55 482.7 2080.55 475.7 2058.15 475.7C2058.15 475.7 2056.75 475.7 2056.05 475.7C2033.65 475.7 2011.25 482.7 1993.05 496.7C1980.45 505.8 1969.95 518.4 1962.25 533.1C1954.55 547.8 1951.05 563.9 1951.05 580.7C1951.05 593.3 1953.15 605.2 1957.35 616.4C1954.55 617.8 1951.75 619.9 1949.65 621.3C1936.35 631.1 1925.85 643.7 1918.85 657.7C1911.15 673.1 1907.65 689.2 1907.65 706C1907.65 722.8 1911.15 738.9 1918.85 753.6C1925.85 768.3 1936.35 780.9 1949.65 790C1967.15 804 1988.85 811 2011.25 811C2011.95 811 2011.95 811 2012.65 811C2036.45 811 2058.15 804 2077.05 790C2090.35 780.2 2100.85 767.6 2108.55 752.9C2112.75 744.5 2115.55 735.4 2117.65 726.3V811H2177.15V808.9H2161.75ZM2117.65 663.3V703.9C2117.65 720.7 2114.15 736.8 2106.45 751.5C2098.75 766.2 2088.25 778.1 2075.65 787.9C2057.45 801.9 2035.75 808.9 2012.65 808.9C2011.95 808.9 2011.95 808.9 2011.25 808.9C1998.65 808.9 1986.05 804.7 1975.55 797C1960.85 785.1 1951.75 768.3 1951.05 749.4C1951.05 748.7 1951.05 748 1951.05 747.3C1951.05 747.3 1951.05 746.6 1951.05 745.9V666.1C1951.05 665.4 1951.05 664.7 1951.05 664C1951.05 664 1951.05 663.3 1951.05 662.6C1951.75 643.7 1960.85 626.2 1975.55 615C1986.05 607.3 1998.65 603.1 2011.25 603.1H2056.05C2070.05 603.1 2083.35 598.2 2094.55 589.8C2105.75 581.4 2114.15 569.5 2117.65 556.2V663.3ZM2117.65 540.8C2116.95 559.7 2108.55 577.2 2093.15 588.4C2082.65 596.1 2070.05 600.3 2056.05 600.3H2011.25C1993.05 601 1974.85 605.9 1959.45 615C1955.25 603.8 1953.15 592.6 1953.15 580.7C1953.15 564.6 1957.35 548.5 1964.35 533.8C1971.35 519.8 1981.85 507.9 1994.45 498.1C2012.65 484.8 2033.65 477.8 2056.05 477.8C2056.75 477.8 2057.45 477.8 2057.45 477.8C2070.75 477.8 2082.65 482 2093.15 489.7C2108.55 501.6 2116.95 518.4 2117.65 537.3V540.8ZM2514.59 352.5H2559.39V308.4H2557.99C2521.59 308.4 2487.29 323.8 2463.49 350.4C2442.49 373.5 2431.29 402.9 2430.59 433.7C2430.59 454.7 2440.39 475 2455.79 488.3C2436.89 479.9 2415.89 475.7 2394.19 475.7H2392.79C2368.99 475.7 2345.19 480.6 2323.49 491.1C2302.49 500.9 2284.29 514.9 2268.89 532.4C2241.59 563.2 2226.89 602.4 2226.89 643.7C2226.89 679.4 2237.39 713 2258.39 741.7L2251.39 749.4C2250.69 750.1 2249.29 750.8 2248.59 752.2C2216.39 787.2 2227.59 828.5 2252.09 851.6C2265.39 864.2 2282.19 871.9 2298.99 872.6C2300.39 872.6 2301.79 872.6 2302.49 872.6C2320.69 872.6 2338.19 865.6 2352.19 850.9L2392.09 811L2394.19 808.9L2403.29 800.5C2418.69 785.1 2438.99 776 2461.39 775.3C2466.99 774.6 2472.59 775.3 2478.19 776C2478.19 776 2479.59 776 2480.29 776C2480.29 776 2480.99 776 2481.69 776.7C2481.69 776.7 2482.39 776.7 2483.09 776.7C2483.79 776.7 2485.89 777.4 2486.59 777.4H2487.29C2487.99 778.1 2489.39 778.1 2490.09 778.8C2505.49 783 2518.79 790.7 2529.99 801.9C2548.19 820.1 2557.99 846 2556.59 870.5C2555.19 896.4 2544.69 920.9 2526.49 939.8L2525.79 940.5C2511.09 954.5 2492.89 962.9 2472.59 963.6C2471.19 963.6 2469.79 963.6 2468.39 963.6C2447.39 963.6 2426.39 955.2 2410.29 939.8L2379.49 909L2347.99 939.8L2348.69 940.5C2373.19 965 2405.39 978.3 2438.99 978.3C2441.09 978.3 2443.19 978.3 2445.99 978.3C2476.09 976.2 2505.49 963.6 2527.19 942.6L2527.89 941.2C2546.79 922.3 2557.99 897.1 2559.39 870.5C2560.09 845.3 2550.29 818.7 2532.09 799.8C2520.89 789.3 2507.59 781.6 2492.89 776.7C2494.99 775.3 2496.39 774.6 2497.79 773.2C2504.79 767.6 2511.09 761.3 2517.39 754.3C2543.99 723.5 2559.39 684.3 2559.39 643.7C2559.39 602.4 2543.99 563.2 2517.39 532.4C2503.39 516.3 2487.29 503.7 2469.09 494.6C2446.69 482 2433.39 458.9 2433.39 433.7C2433.39 414.1 2441.09 394.5 2454.39 379.8C2469.79 363 2491.49 353.2 2514.59 352.5ZM2350.79 849.5C2317.89 882.4 2277.29 872.6 2253.49 849.5C2230.39 827.1 2219.19 787.9 2250.69 753.6C2251.39 752.9 2252.09 751.5 2252.79 750.8L2259.79 743.8C2262.59 747.3 2265.39 750.8 2268.89 754.3C2283.59 771.8 2302.49 785.8 2322.79 795.6C2343.79 805.4 2366.19 810.3 2388.59 811L2350.79 849.5ZM2478.89 514.2C2501.99 536.6 2514.59 567.4 2515.29 599.6V687.1C2514.59 716.5 2504.09 744.5 2484.49 766.2C2482.39 769 2480.29 771.1 2478.19 773.2C2472.59 772.5 2466.29 772.5 2460.69 772.5C2438.29 773.9 2417.29 783 2401.19 798.4L2391.39 808.9C2359.19 808.2 2329.09 794.9 2306.69 772.5C2283.59 749.4 2270.99 719.3 2270.29 687.1V599.6C2270.99 567.4 2284.29 536.6 2306.69 514.2C2329.79 491.1 2360.59 478.5 2392.79 477.8C2424.99 478.5 2455.79 491.1 2478.89 514.2Z" fill="white"/>
<path d="M1004.44 1175.12H1010.55L995.73 1198.78C995.73 1198.78 995.08 1199.69 994.56 1200.47L978.7 1175.12H980.91V1173.43H965.7V1175.12H968.95L989.49 1207.75C981.69 1217.89 972.85 1225.3 963.23 1229.85C955.43 1233.62 947.11 1235.44 938.01 1235.44C932.16 1235.31 926.57 1232.97 922.54 1228.81C918.38 1224.65 916.04 1219.19 915.91 1213.34V1198H968.69L968.43 1196.96C967.13 1192.28 964.79 1187.86 961.54 1184.22C958.68 1180.84 955.17 1178.24 951.14 1176.42C947.11 1174.47 942.82 1173.56 938.27 1173.43H938.01C933.46 1173.43 929.04 1174.47 924.88 1176.42C920.85 1178.24 917.34 1180.84 914.48 1184.22C909.28 1190.07 906.55 1197.48 906.55 1205.28C906.55 1212.95 909.28 1220.49 914.48 1226.34C917.34 1229.59 920.85 1232.19 924.88 1234.14C929.04 1235.96 933.46 1237 938.01 1237C938.01 1237 938.01 1237 938.14 1237H938.27C947.5 1237 955.95 1235.18 964.01 1231.28C973.63 1226.73 982.6 1219.32 990.4 1209.31L1006.65 1235.44H1004.44V1237H1019.65V1235.44H1016.4L995.6 1202.03C996.12 1201.25 996.64 1200.47 997.16 1199.56L1009.12 1180.45H1009.25L1009.51 1179.93C1011.46 1176.94 1014.97 1175.12 1019 1175.12H1019.65V1173.43H1004.44V1175.12ZM915.91 1196.31C916.17 1190.72 918.51 1185.65 922.54 1181.62C926.57 1177.46 932.16 1175.25 938.01 1175.12C943.86 1175.25 949.32 1177.46 953.48 1181.62C957.51 1185.65 959.72 1190.72 960.11 1196.31H915.91ZM1087.31 1184.22C1084.32 1180.84 1080.94 1178.24 1076.91 1176.42C1072.75 1174.47 1068.33 1173.43 1063.78 1173.43C1063.65 1173.43 1063.52 1173.43 1063.39 1173.43C1057.02 1173.43 1050.91 1175.9 1046.36 1180.45C1044.02 1182.79 1042.2 1185.65 1041.03 1188.64V1173.43H1028.81V1175.12H1031.67V1266.38H1028.81V1268.07H1043.89V1266.38H1041.03V1221.92C1042.2 1224.91 1044.02 1227.64 1046.36 1229.98C1050.91 1234.53 1057.02 1237.13 1063.39 1237.13C1063.52 1237.13 1063.65 1237 1063.78 1237C1068.33 1237 1072.75 1235.96 1076.91 1234.14C1080.94 1232.19 1084.32 1229.59 1087.31 1226.34C1092.38 1220.49 1095.24 1212.95 1095.24 1205.28C1095.24 1197.48 1092.38 1190.07 1087.31 1184.22ZM1079.25 1228.81C1075.09 1232.97 1069.63 1235.31 1063.78 1235.44C1063.65 1235.44 1063.52 1235.44 1063.39 1235.44C1057.54 1235.44 1051.95 1233.1 1047.66 1228.94C1043.5 1224.78 1041.16 1219.19 1041.03 1213.21V1197.22C1041.16 1191.37 1043.5 1185.78 1047.66 1181.62C1051.95 1177.46 1057.54 1175.12 1063.39 1175.12C1063.52 1175.12 1063.65 1175.12 1063.78 1175.12C1069.63 1175.12 1075.09 1177.46 1079.25 1181.62C1083.41 1185.78 1085.75 1191.24 1085.88 1197.09V1213.34C1085.75 1219.19 1083.41 1224.65 1079.25 1228.81ZM1156.73 1198H1166.74L1166.48 1196.96C1165.18 1192.28 1162.84 1187.86 1159.59 1184.22C1156.73 1180.84 1153.22 1178.24 1149.19 1176.42C1145.16 1174.47 1140.87 1173.56 1136.32 1173.43H1136.06C1131.51 1173.43 1127.09 1174.47 1122.93 1176.42C1118.9 1178.24 1115.39 1180.84 1112.53 1184.22C1107.33 1190.07 1104.6 1197.48 1104.6 1205.28C1104.6 1212.95 1107.33 1220.49 1112.53 1226.34C1115.39 1229.59 1118.9 1232.19 1122.93 1234.14C1127.09 1235.96 1131.51 1237 1136.06 1237H1136.32C1140.87 1237 1145.16 1235.96 1149.19 1234.14C1153.22 1232.19 1156.73 1229.59 1159.59 1226.34C1161.15 1224.52 1162.45 1222.57 1163.62 1220.49C1166.48 1215.42 1166.35 1209.44 1163.49 1204.37C1161.8 1201.51 1159.46 1199.43 1156.73 1198ZM1120.59 1181.62C1124.62 1177.46 1130.21 1175.12 1136.06 1175.12C1141.91 1175.25 1147.37 1177.46 1151.53 1181.62C1155.56 1185.52 1157.77 1190.72 1158.16 1196.31H1113.96C1114.22 1190.72 1116.56 1185.52 1120.59 1181.62ZM1162.19 1219.71C1161.15 1221.66 1159.85 1223.48 1158.29 1225.17C1155.56 1228.29 1152.31 1230.76 1148.41 1232.58C1144.51 1234.4 1140.35 1235.31 1136.06 1235.44C1130.21 1235.31 1124.62 1232.97 1120.59 1228.81C1116.43 1224.65 1114.09 1219.19 1113.96 1213.34V1198H1150.1C1155.04 1198.13 1159.46 1200.86 1162.06 1205.28C1164.66 1209.7 1164.66 1215.16 1162.19 1219.71ZM1211.69 1185.65V1186.82V1193.84V1194.49H1211.82C1212.21 1196.7 1214.03 1198.39 1216.37 1198.39C1218.84 1198.39 1220.92 1196.44 1221.05 1193.84V1193.58C1221.05 1190.33 1220.4 1187.34 1218.97 1184.48C1217.54 1181.75 1215.46 1179.28 1212.99 1177.46C1209.61 1174.86 1205.45 1173.56 1201.16 1173.43C1201.16 1173.43 1201.03 1173.43 1200.9 1173.43C1197 1173.43 1193.36 1174.47 1190.11 1176.55V1173.3H1177.89V1174.99H1180.75V1235.31H1177.89V1237H1192.97V1235.31H1190.11V1178.63C1193.23 1176.29 1197 1175.12 1200.9 1175.12C1201.03 1175.12 1201.16 1175.12 1201.16 1175.12C1203.37 1175.12 1205.58 1175.9 1207.4 1177.33C1210 1179.28 1211.56 1182.27 1211.69 1185.65ZM1221.05 1235.31V1203.2L1208.57 1208.79L1209.22 1210.35L1211.69 1209.31V1235.31H1208.83V1237H1224.04V1235.31H1221.05ZM1287.36 1198H1297.37L1297.11 1196.96C1295.81 1192.28 1293.47 1187.86 1290.22 1184.22C1287.36 1180.84 1283.85 1178.24 1279.82 1176.42C1275.79 1174.47 1271.5 1173.56 1266.95 1173.43H1266.69C1262.14 1173.43 1257.72 1174.47 1253.56 1176.42C1249.53 1178.24 1246.02 1180.84 1243.16 1184.22C1237.96 1190.07 1235.23 1197.48 1235.23 1205.28C1235.23 1212.95 1237.96 1220.49 1243.16 1226.34C1246.02 1229.59 1249.53 1232.19 1253.56 1234.14C1257.72 1235.96 1262.14 1237 1266.69 1237H1266.95C1271.5 1237 1275.79 1235.96 1279.82 1234.14C1283.85 1232.19 1287.36 1229.59 1290.22 1226.34C1291.78 1224.52 1293.08 1222.57 1294.25 1220.49C1297.11 1215.42 1296.98 1209.44 1294.12 1204.37C1292.43 1201.51 1290.09 1199.43 1287.36 1198ZM1251.22 1181.62C1255.25 1177.46 1260.84 1175.12 1266.69 1175.12C1272.54 1175.25 1278 1177.46 1282.16 1181.62C1286.19 1185.52 1288.4 1190.72 1288.79 1196.31H1244.59C1244.85 1190.72 1247.19 1185.52 1251.22 1181.62ZM1292.82 1219.71C1291.78 1221.66 1290.48 1223.48 1288.92 1225.17C1286.19 1228.29 1282.94 1230.76 1279.04 1232.58C1275.14 1234.4 1270.98 1235.31 1266.69 1235.44C1260.84 1235.31 1255.25 1232.97 1251.22 1228.81C1247.06 1224.65 1244.72 1219.19 1244.59 1213.34V1198H1280.73C1285.67 1198.13 1290.09 1200.86 1292.69 1205.28C1295.29 1209.7 1295.29 1215.16 1292.82 1219.71ZM1349.74 1235.44V1193.45V1192.93C1349.61 1189.94 1348.96 1187.21 1347.66 1184.48C1346.23 1181.75 1344.15 1179.41 1341.68 1177.59C1338.3 1174.99 1334.14 1173.56 1329.85 1173.56C1329.85 1173.56 1329.72 1173.56 1329.59 1173.56C1325.69 1173.56 1322.05 1174.6 1318.8 1176.68V1173.43H1306.58V1175.12H1309.44V1235.44H1306.58V1237H1321.66V1235.44H1318.8V1178.63C1321.92 1176.42 1325.69 1175.25 1329.59 1175.25C1329.72 1175.25 1329.85 1175.25 1329.85 1175.25C1332.06 1175.25 1334.27 1176.03 1336.09 1177.33C1338.69 1179.28 1340.25 1182.4 1340.38 1185.65V1235.44H1337.52V1237H1352.73V1235.44H1349.74ZM1422.12 1213.08C1420.95 1217.5 1418.74 1221.79 1415.62 1225.17C1412.89 1228.29 1409.64 1230.76 1405.74 1232.58C1401.84 1234.4 1397.68 1235.31 1393.39 1235.44C1387.54 1235.31 1381.95 1232.97 1377.92 1228.81C1373.76 1224.65 1371.42 1219.19 1371.29 1213.34V1197.09C1371.42 1191.24 1373.76 1185.78 1377.92 1181.62C1381.95 1177.46 1387.54 1175.12 1393.39 1175.12C1399.24 1175.25 1404.7 1177.46 1408.86 1181.62C1413.02 1185.78 1415.36 1191.24 1415.49 1197.22V1198H1424.07L1423.81 1196.96C1422.51 1192.28 1420.17 1187.86 1416.92 1184.22C1414.06 1180.84 1410.55 1178.24 1406.52 1176.42C1402.49 1174.47 1398.2 1173.56 1393.65 1173.43C1393.65 1173.43 1393.52 1173.43 1393.39 1173.43C1388.84 1173.43 1384.42 1174.47 1380.26 1176.42C1376.23 1178.24 1372.72 1180.84 1369.86 1184.22C1364.66 1190.07 1361.93 1197.48 1361.93 1205.28C1361.93 1212.95 1364.66 1220.49 1369.86 1226.34C1372.72 1229.59 1376.23 1232.19 1380.26 1234.14C1384.42 1235.96 1388.84 1237 1393.39 1237C1393.52 1237 1393.65 1237 1393.65 1237C1398.2 1237 1402.49 1235.96 1406.52 1234.14C1410.55 1232.19 1414.06 1229.59 1416.92 1226.34C1420.17 1222.7 1422.51 1218.28 1423.81 1213.6L1423.94 1212.95L1422.38 1212.56L1422.12 1213.08ZM1485.41 1198H1495.42L1495.16 1196.96C1493.86 1192.28 1491.52 1187.86 1488.27 1184.22C1485.41 1180.84 1481.9 1178.24 1477.87 1176.42C1473.84 1174.47 1469.55 1173.56 1465 1173.43H1464.74C1460.19 1173.43 1455.77 1174.47 1451.61 1176.42C1447.58 1178.24 1444.07 1180.84 1441.21 1184.22C1436.01 1190.07 1433.28 1197.48 1433.28 1205.28C1433.28 1212.95 1436.01 1220.49 1441.21 1226.34C1444.07 1229.59 1447.58 1232.19 1451.61 1234.14C1455.77 1235.96 1460.19 1237 1464.74 1237H1465C1469.55 1237 1473.84 1235.96 1477.87 1234.14C1481.9 1232.19 1485.41 1229.59 1488.27 1226.34C1489.83 1224.52 1491.13 1222.57 1492.3 1220.49C1495.16 1215.42 1495.03 1209.44 1492.17 1204.37C1490.48 1201.51 1488.14 1199.43 1485.41 1198ZM1449.27 1181.62C1453.3 1177.46 1458.89 1175.12 1464.74 1175.12C1470.59 1175.25 1476.05 1177.46 1480.21 1181.62C1484.24 1185.52 1486.45 1190.72 1486.84 1196.31H1442.64C1442.9 1190.72 1445.24 1185.52 1449.27 1181.62ZM1490.87 1219.71C1489.83 1221.66 1488.53 1223.48 1486.97 1225.17C1484.24 1228.29 1480.99 1230.76 1477.09 1232.58C1473.19 1234.4 1469.03 1235.31 1464.74 1235.44C1458.89 1235.31 1453.3 1232.97 1449.27 1228.81C1445.11 1224.65 1442.77 1219.19 1442.64 1213.34V1198H1478.78C1483.72 1198.13 1488.14 1200.86 1490.74 1205.28C1493.34 1209.7 1493.34 1215.16 1490.87 1219.71ZM1571.97 1231.28L1571.58 1231.67C1568.33 1234.14 1564.43 1235.44 1560.4 1235.44C1560.4 1235.44 1560.4 1235.44 1560.27 1235.44H1560.14C1557.93 1235.31 1555.72 1234.53 1553.9 1233.23C1551.3 1231.28 1549.74 1228.16 1549.61 1224.91C1549.61 1224.26 1549.61 1180.84 1549.61 1175.12H1572.75V1173.43H1545.45C1547.14 1172.39 1548.44 1170.83 1549.22 1168.88C1549.22 1168.62 1549.35 1168.36 1549.35 1168.1C1549.61 1167.45 1549.61 1166.8 1549.61 1166.15V1141.97L1537.13 1147.69L1537.78 1149.12L1540.25 1148.08V1173.43H1537.39V1175.12H1540.25V1216.85V1217.76C1540.38 1220.62 1541.03 1223.48 1542.46 1226.08C1543.76 1228.81 1545.84 1231.15 1548.31 1232.97C1551.56 1235.44 1555.46 1236.87 1559.49 1237H1559.75C1559.88 1237 1560.01 1237 1560.14 1237C1560.27 1237 1560.27 1237 1560.4 1237C1564.82 1237 1568.98 1235.7 1572.49 1232.97L1573.01 1232.71L1571.97 1231.28ZM1620.78 1235.44V1193.71V1192.93C1620.65 1189.94 1620 1187.21 1618.7 1184.48C1617.27 1181.75 1615.19 1179.41 1612.72 1177.59C1609.34 1174.99 1605.18 1173.56 1600.89 1173.56C1600.89 1173.56 1600.76 1173.56 1600.63 1173.56C1596.73 1173.56 1593.09 1174.6 1589.84 1176.68V1142.49H1577.62V1144.18H1580.48V1235.44H1577.62V1237H1592.7V1235.44H1589.84V1178.63C1592.96 1176.42 1596.73 1175.25 1600.63 1175.25C1600.76 1175.25 1600.89 1175.25 1600.89 1175.25C1603.1 1175.25 1605.31 1176.03 1607.13 1177.33C1609.73 1179.28 1611.29 1182.4 1611.42 1185.65V1235.44H1608.56V1237H1623.77V1235.44H1620.78ZM1685.11 1198H1695.12L1694.86 1196.96C1693.56 1192.28 1691.22 1187.86 1687.97 1184.22C1685.11 1180.84 1681.6 1178.24 1677.57 1176.42C1673.54 1174.47 1669.25 1173.56 1664.7 1173.43H1664.44C1659.89 1173.43 1655.47 1174.47 1651.31 1176.42C1647.28 1178.24 1643.77 1180.84 1640.91 1184.22C1635.71 1190.07 1632.98 1197.48 1632.98 1205.28C1632.98 1212.95 1635.71 1220.49 1640.91 1226.34C1643.77 1229.59 1647.28 1232.19 1651.31 1234.14C1655.47 1235.96 1659.89 1237 1664.44 1237H1664.7C1669.25 1237 1673.54 1235.96 1677.57 1234.14C1681.6 1232.19 1685.11 1229.59 1687.97 1226.34C1689.53 1224.52 1690.83 1222.57 1692 1220.49C1694.86 1215.42 1694.73 1209.44 1691.87 1204.37C1690.18 1201.51 1687.84 1199.43 1685.11 1198ZM1648.97 1181.62C1653 1177.46 1658.59 1175.12 1664.44 1175.12C1670.29 1175.25 1675.75 1177.46 1679.91 1181.62C1683.94 1185.52 1686.15 1190.72 1686.54 1196.31H1642.34C1642.6 1190.72 1644.94 1185.52 1648.97 1181.62ZM1690.57 1219.71C1689.53 1221.66 1688.23 1223.48 1686.67 1225.17C1683.94 1228.29 1680.69 1230.76 1676.79 1232.58C1672.89 1234.4 1668.73 1235.31 1664.44 1235.44C1658.59 1235.31 1653 1232.97 1648.97 1228.81C1644.81 1224.65 1642.47 1219.19 1642.34 1213.34V1198H1678.48C1683.42 1198.13 1687.84 1200.86 1690.44 1205.28C1693.04 1209.7 1693.04 1215.16 1690.57 1219.71ZM1782.97 1173.43H1767.76V1175.12H1770.62V1231.8C1767.5 1234.14 1763.73 1235.31 1759.83 1235.31C1759.7 1235.31 1759.7 1235.31 1759.57 1235.31C1757.36 1235.31 1755.15 1234.53 1753.33 1233.1C1750.73 1231.15 1749.17 1228.16 1749.04 1224.78V1175.12H1751.9V1173.43H1736.82V1175.12H1739.68V1216.98C1739.68 1220.1 1740.46 1223.22 1741.89 1225.95C1743.19 1228.68 1745.27 1231.15 1747.74 1232.97C1751.12 1235.57 1755.28 1236.87 1759.57 1237C1759.7 1237 1759.7 1237 1759.83 1237C1763.73 1237 1767.37 1235.96 1770.62 1233.88V1237H1782.97V1235.44H1779.98V1175.12H1782.97V1173.43ZM1804.66 1235.44V1141.97L1792.18 1147.69L1792.83 1149.12L1795.3 1148.08V1235.44H1792.44V1237H1807.52V1235.44H1804.66ZM1862.3 1235.44V1173.43H1825.51C1826.03 1173.04 1826.42 1172.65 1826.94 1172.26C1828.5 1170.57 1829.28 1168.49 1829.28 1166.15V1141.97L1816.8 1147.69L1817.45 1149.12L1819.92 1148.08V1173.43H1817.06V1175.12H1819.92V1217.11V1217.76C1820.05 1220.62 1820.7 1223.48 1822.13 1226.08C1823.43 1228.81 1825.51 1231.15 1827.98 1232.97C1831.36 1235.57 1835.52 1237 1839.81 1237H1865.16V1235.44H1862.3ZM1839.81 1235.44C1837.6 1235.31 1835.39 1234.53 1833.57 1233.23C1830.97 1231.28 1829.41 1228.16 1829.28 1224.91C1829.28 1224.65 1829.28 1205.67 1829.28 1205.41V1175.12H1852.81V1235.44H1839.81ZM1857.62 1163.55C1860.22 1163.55 1862.3 1161.34 1862.3 1158.74C1862.3 1156.14 1860.22 1154.06 1857.62 1154.06C1855.02 1154.06 1852.81 1156.14 1852.81 1158.74C1852.81 1161.34 1855.02 1163.55 1857.62 1163.55ZM1948.67 1235.44V1193.45V1192.93C1948.54 1189.94 1947.76 1187.08 1946.46 1184.48C1945.03 1181.75 1943.08 1179.41 1940.61 1177.59C1937.1 1174.99 1933.07 1173.56 1928.78 1173.56C1928.78 1173.56 1928.52 1173.56 1928.39 1173.56C1924.1 1173.56 1919.81 1174.86 1916.3 1177.59C1915.13 1178.5 1913.96 1179.54 1912.92 1180.71C1912.01 1179.54 1910.84 1178.5 1909.54 1177.59C1906.16 1174.99 1902 1173.56 1897.71 1173.56C1897.71 1173.56 1897.58 1173.56 1897.45 1173.56C1893.55 1173.56 1889.91 1174.6 1886.66 1176.68V1173.43H1874.44V1175.12H1877.3V1235.44H1874.44V1237H1889.52V1235.44H1886.66V1178.63C1889.78 1176.42 1893.55 1175.25 1897.45 1175.25C1897.58 1175.25 1897.58 1175.25 1897.71 1175.25C1899.92 1175.25 1902.13 1176.03 1903.95 1177.33C1906.55 1179.28 1908.11 1182.4 1908.24 1185.65V1235.44H1905.38V1237H1920.59V1235.44H1917.6V1193.45V1192.93C1917.47 1189.94 1916.82 1187.08 1915.52 1184.48C1915 1183.7 1914.61 1182.92 1913.96 1182.14C1915 1180.97 1916.04 1179.8 1917.34 1178.89C1920.59 1176.42 1924.36 1175.25 1928.39 1175.25C1928.52 1175.25 1928.65 1175.25 1928.65 1175.25C1930.99 1175.25 1933.07 1176.03 1934.89 1177.33C1937.62 1179.28 1939.18 1182.4 1939.18 1185.65V1235.44H1936.32V1237H1951.53V1235.44H1948.67ZM2009.26 1193.58C2009.26 1190.46 2008.48 1187.34 2007.05 1184.48C2005.62 1181.75 2003.54 1179.28 2001.07 1177.46C1997.69 1174.86 1993.66 1173.43 1989.24 1173.43H1988.98C1984.56 1173.43 1980.4 1174.86 1976.89 1177.46C1974.42 1179.28 1972.34 1181.75 1971.04 1184.48C1969.61 1187.34 1968.83 1190.46 1968.83 1193.58C1968.83 1195.79 1969.09 1197.87 1969.87 1199.95C1969.48 1200.21 1969.09 1200.47 1968.83 1200.73C1966.36 1202.55 1964.28 1205.02 1962.85 1207.75C1961.42 1210.48 1960.77 1213.6 1960.77 1216.85C1960.77 1220.1 1961.42 1223.22 1962.85 1226.08C1964.28 1228.81 1966.36 1231.15 1968.83 1232.97C1972.21 1235.57 1976.37 1237 1980.66 1237H1980.92C1985.34 1237 1989.63 1235.7 1993.27 1232.97C1995.74 1231.02 1997.82 1228.68 1999.25 1225.82C1999.38 1225.43 1999.64 1225.04 1999.77 1224.65V1237H2012.12V1235.44H2009.26V1193.58ZM1999.77 1216.59C1999.77 1219.58 1999.12 1222.44 1997.69 1225.04C1996.39 1227.64 1994.57 1229.85 1992.23 1231.67C1988.98 1234.14 1985.08 1235.44 1980.92 1235.44C1980.79 1235.44 1980.66 1235.44 1980.66 1235.44C1978.45 1235.31 1976.24 1234.53 1974.42 1233.23C1971.82 1231.28 1970.26 1228.16 1970.13 1224.91C1970.13 1224.65 1970.13 1209.18 1970.13 1208.79C1970.26 1205.54 1971.82 1202.55 1974.42 1200.47C1976.24 1199.17 1978.45 1198.39 1980.66 1198.39H1988.98C1991.71 1198.39 1994.31 1197.48 1996.52 1195.92C1997.82 1194.88 1998.99 1193.58 1999.77 1192.15V1216.59ZM1999.77 1186.17C1999.64 1189.55 1998.08 1192.54 1995.48 1194.49C1993.66 1195.92 1991.32 1196.7 1988.98 1196.7H1980.66C1977.41 1196.7 1974.16 1197.48 1971.3 1199.04C1970.78 1197.35 1970.52 1195.53 1970.52 1193.58C1970.52 1190.72 1971.17 1187.86 1972.47 1185.26C1973.77 1182.66 1975.59 1180.45 1977.93 1178.76C1981.18 1176.42 1984.95 1175.12 1988.98 1175.12C1989.11 1175.12 1989.24 1175.12 1989.24 1175.12C1991.58 1175.12 1993.66 1175.9 1995.48 1177.2C1998.08 1179.28 1999.64 1182.27 1999.77 1185.65V1186.17ZM2056.17 1231.28L2055.78 1231.67C2052.53 1234.14 2048.63 1235.44 2044.6 1235.44C2044.6 1235.44 2044.6 1235.44 2044.47 1235.44H2044.34C2042.13 1235.31 2039.92 1234.53 2038.1 1233.23C2035.5 1231.28 2033.94 1228.16 2033.81 1224.91C2033.81 1224.26 2033.81 1180.84 2033.81 1175.12H2056.95V1173.43H2029.65C2031.34 1172.39 2032.64 1170.83 2033.42 1168.88C2033.42 1168.62 2033.55 1168.36 2033.55 1168.1C2033.81 1167.45 2033.81 1166.8 2033.81 1166.15V1141.97L2021.33 1147.69L2021.98 1149.12L2024.45 1148.08V1173.43H2021.59V1175.12H2024.45V1216.85V1217.76C2024.58 1220.62 2025.23 1223.48 2026.66 1226.08C2027.96 1228.81 2030.04 1231.15 2032.51 1232.97C2035.76 1235.44 2039.66 1236.87 2043.69 1237H2043.95C2044.08 1237 2044.21 1237 2044.34 1237C2044.47 1237 2044.47 1237 2044.6 1237C2049.02 1237 2053.18 1235.7 2056.69 1232.97L2057.21 1232.71L2056.17 1231.28ZM2113.95 1198H2123.96L2123.7 1196.96C2122.4 1192.28 2120.06 1187.86 2116.81 1184.22C2113.95 1180.84 2110.44 1178.24 2106.41 1176.42C2102.38 1174.47 2098.09 1173.56 2093.54 1173.43H2093.28C2088.73 1173.43 2084.31 1174.47 2080.15 1176.42C2076.12 1178.24 2072.61 1180.84 2069.75 1184.22C2064.55 1190.07 2061.82 1197.48 2061.82 1205.28C2061.82 1212.95 2064.55 1220.49 2069.75 1226.34C2072.61 1229.59 2076.12 1232.19 2080.15 1234.14C2084.31 1235.96 2088.73 1237 2093.28 1237H2093.54C2098.09 1237 2102.38 1235.96 2106.41 1234.14C2110.44 1232.19 2113.95 1229.59 2116.81 1226.34C2118.37 1224.52 2119.67 1222.57 2120.84 1220.49C2123.7 1215.42 2123.57 1209.44 2120.71 1204.37C2119.02 1201.51 2116.68 1199.43 2113.95 1198ZM2077.81 1181.62C2081.84 1177.46 2087.43 1175.12 2093.28 1175.12C2099.13 1175.25 2104.59 1177.46 2108.75 1181.62C2112.78 1185.52 2114.99 1190.72 2115.38 1196.31H2071.18C2071.44 1190.72 2073.78 1185.52 2077.81 1181.62ZM2119.41 1219.71C2118.37 1221.66 2117.07 1223.48 2115.51 1225.17C2112.78 1228.29 2109.53 1230.76 2105.63 1232.58C2101.73 1234.4 2097.57 1235.31 2093.28 1235.44C2087.43 1235.31 2081.84 1232.97 2077.81 1228.81C2073.65 1224.65 2071.31 1219.19 2071.18 1213.34V1198H2107.32C2112.26 1198.13 2116.68 1200.86 2119.28 1205.28C2121.88 1209.7 2121.88 1215.16 2119.41 1219.71ZM2208.83 1235.44V1193.71V1192.93C2208.7 1189.94 2208.05 1187.21 2206.75 1184.48C2205.32 1181.75 2203.24 1179.41 2200.77 1177.59C2197.39 1174.99 2193.23 1173.56 2188.94 1173.56C2188.94 1173.56 2188.81 1173.56 2188.68 1173.56C2184.78 1173.56 2181.14 1174.6 2177.89 1176.68V1142.49H2165.67V1144.18H2168.53V1235.44H2165.67V1237H2180.75V1235.44H2177.89V1178.63C2181.01 1176.42 2184.78 1175.25 2188.68 1175.25C2188.81 1175.25 2188.94 1175.25 2188.94 1175.25C2191.15 1175.25 2193.36 1176.03 2195.18 1177.33C2197.78 1179.28 2199.34 1182.4 2199.47 1185.65V1235.44H2196.61V1237H2211.82V1235.44H2208.83ZM2235.45 1235.44V1172.91L2222.97 1178.63L2223.62 1180.19L2226.09 1179.02V1235.44H2223.23V1237H2238.31V1235.44H2235.45ZM2230.77 1163.55C2233.37 1163.55 2235.45 1161.34 2235.45 1158.74C2235.45 1156.14 2233.37 1154.06 2230.77 1154.06C2228.17 1154.06 2226.09 1156.14 2226.09 1158.74C2226.09 1161.34 2228.17 1163.55 2230.77 1163.55ZM2292.62 1235.44V1193.45V1192.93C2292.49 1189.94 2291.84 1187.21 2290.54 1184.48C2289.11 1181.75 2287.03 1179.41 2284.56 1177.59C2281.18 1174.99 2277.02 1173.56 2272.73 1173.56C2272.73 1173.56 2272.6 1173.56 2272.47 1173.56C2268.57 1173.56 2264.93 1174.6 2261.68 1176.68V1173.43H2249.46V1175.12H2252.32V1235.44H2249.46V1237H2264.54V1235.44H2261.68V1178.63C2264.8 1176.42 2268.57 1175.25 2272.47 1175.25C2272.6 1175.25 2272.73 1175.25 2272.73 1175.25C2274.94 1175.25 2277.15 1176.03 2278.97 1177.33C2281.57 1179.28 2283.13 1182.4 2283.26 1185.65V1235.44H2280.4V1237H2295.61V1235.44H2292.62ZM2368.38 1141.97L2355.77 1147.69L2356.55 1149.12L2359.02 1148.08V1188.64C2357.72 1185.65 2355.9 1182.79 2353.56 1180.45C2349.01 1175.9 2343.03 1173.43 2336.53 1173.43C2336.4 1173.43 2336.4 1173.43 2336.27 1173.43C2331.72 1173.43 2327.3 1174.47 2323.14 1176.42C2319.11 1178.24 2315.6 1180.84 2312.74 1184.22C2307.54 1190.07 2304.81 1197.48 2304.81 1205.28C2304.81 1212.95 2307.54 1220.49 2312.74 1226.34C2315.6 1229.59 2319.11 1232.19 2323.14 1234.14C2327.3 1235.96 2331.72 1237 2336.27 1237L2336.53 1237.13C2343.03 1237.13 2349.01 1234.53 2353.56 1229.98C2355.9 1227.64 2357.72 1224.91 2359.02 1221.92V1237.13H2371.24V1235.44H2368.38V1141.97ZM2352.26 1228.94C2348.1 1233.1 2342.51 1235.44 2336.53 1235.44H2336.27C2330.42 1235.31 2324.83 1232.97 2320.8 1228.81C2316.64 1224.65 2314.3 1219.19 2314.17 1213.34V1197.22C2314.3 1191.24 2316.64 1185.78 2320.8 1181.62C2324.83 1177.46 2330.42 1175.12 2336.27 1175.12C2336.4 1175.12 2336.4 1175.12 2336.53 1175.12C2342.51 1175.12 2348.1 1177.46 2352.26 1181.62C2356.55 1185.78 2358.89 1191.37 2359.02 1197.22V1213.21C2358.89 1219.19 2356.55 1224.78 2352.26 1228.94ZM2426.75 1173.43H2411.54V1175.12H2414.4V1231.8C2411.28 1234.14 2407.51 1235.31 2403.61 1235.31C2403.48 1235.31 2403.48 1235.31 2403.35 1235.31C2401.14 1235.31 2398.93 1234.53 2397.11 1233.1C2394.51 1231.15 2392.95 1228.16 2392.82 1224.78V1175.12H2395.68V1173.43H2380.6V1175.12H2383.46V1216.98C2383.46 1220.1 2384.24 1223.22 2385.67 1225.95C2386.97 1228.68 2389.05 1231.15 2391.52 1232.97C2394.9 1235.57 2399.06 1236.87 2403.35 1237C2403.48 1237 2403.48 1237 2403.61 1237C2407.51 1237 2411.15 1235.96 2414.4 1233.88V1237H2426.75V1235.44H2423.76V1175.12H2426.75V1173.43ZM2472.22 1204.76C2471.7 1204.11 2471.05 1203.33 2470.4 1202.68C2468.19 1200.47 2464.55 1198.52 2461.56 1197.09L2453.63 1193.19C2447.39 1190.2 2440.89 1186.69 2440.37 1183.31C2440.11 1182.27 2440.5 1181.23 2441.54 1180.19L2441.8 1179.93L2442.06 1179.67L2440.89 1178.5L2440.5 1178.89C2440.37 1178.89 2440.37 1179.02 2440.37 1179.02C2438.55 1180.84 2437.51 1182.53 2436.6 1184.74C2435.82 1187.08 2435.69 1189.55 2436.34 1191.89C2436.99 1194.36 2438.68 1196.44 2441.02 1197.61L2465.07 1209.18C2465.46 1209.31 2465.85 1209.57 2466.24 1209.7C2467.41 1210.35 2468.32 1211 2469.23 1211.91C2471.57 1214.25 2472.87 1217.37 2472.87 1220.75C2473 1224 2471.7 1227.25 2469.49 1229.59C2469.49 1229.59 2469.23 1229.85 2469.23 1229.98C2465.98 1233.1 2461.82 1234.92 2457.4 1235.31C2457.01 1235.31 2456.49 1235.31 2456.1 1235.31C2452.2 1235.31 2448.3 1234.01 2445.05 1231.67L2444.53 1231.28C2444.01 1230.89 2443.49 1230.37 2442.97 1229.98C2439.46 1226.47 2437.51 1221.79 2437.51 1216.85V1216.2H2435.95V1236.74H2437.51V1236.22C2437.51 1233.88 2439.33 1232.06 2441.41 1232.06C2442.19 1232.06 2442.84 1232.19 2443.49 1232.58C2443.62 1232.71 2444.01 1233.1 2444.14 1233.1C2447.52 1235.57 2451.81 1237 2456.1 1237C2456.62 1237 2457.01 1237 2457.53 1237C2462.34 1236.61 2466.89 1234.53 2470.4 1231.15C2470.4 1231.15 2470.53 1230.89 2470.66 1230.89V1230.76C2475.34 1225.95 2477.29 1219.32 2475.99 1212.82C2475.34 1209.96 2474.04 1207.23 2472.22 1204.76ZM2521.88 1231.28L2521.36 1231.67C2518.24 1234.01 2514.34 1235.31 2510.31 1235.31C2510.18 1235.31 2510.05 1235.31 2510.05 1235.31C2507.84 1235.31 2505.63 1234.53 2503.81 1233.23C2501.21 1231.15 2499.65 1228.16 2499.52 1224.78C2499.52 1224.78 2499.52 1224.65 2499.52 1224.52C2499.52 1224.39 2499.52 1224.39 2499.52 1224.26V1174.99H2522.66V1173.3H2495.36C2497.05 1172.39 2498.35 1170.7 2499 1168.88C2499.13 1168.62 2499.26 1168.36 2499.26 1167.97C2499.39 1167.45 2499.52 1166.8 2499.52 1166.28V1164.72V1150.81L2499.39 1150.68C2499.26 1150.55 2498.22 1149.25 2497.57 1148.6C2495.75 1146.78 2493.67 1145.35 2491.33 1144.31L2490.94 1144.18C2488.21 1143.01 2485.35 1142.36 2482.49 1142.36C2481.19 1142.36 2480.02 1142.49 2478.72 1142.75C2474.43 1143.4 2470.4 1145.48 2467.28 1148.6C2462.6 1153.28 2460 1160.3 2460.52 1166.8C2461.04 1172 2463.38 1176.29 2467.41 1179.15C2468.06 1179.54 2468.58 1180.19 2469.23 1180.71C2472.61 1184.09 2474.43 1188.51 2474.56 1193.19V1193.84H2476.25V1173.56H2474.56V1174.21C2474.56 1176.55 2472.87 1178.37 2470.4 1178.37C2469.62 1178.37 2468.97 1178.11 2468.32 1177.72C2464.81 1175.25 2462.6 1171.35 2462.21 1166.67C2461.69 1160.56 2464.03 1154.19 2468.45 1149.9C2471.31 1146.91 2474.95 1145.09 2478.98 1144.31C2480.15 1144.18 2481.32 1144.05 2482.49 1144.05C2485.09 1144.05 2487.69 1144.57 2490.03 1145.61V1163.55V1173.3H2487.17V1174.99H2490.03V1216.85V1217.63H2490.16C2490.16 1220.62 2490.94 1223.35 2492.24 1225.95C2493.67 1228.68 2495.75 1231.15 2498.22 1232.97C2501.6 1235.57 2505.76 1237 2510.05 1237C2510.05 1237 2510.18 1237 2510.31 1237C2514.73 1237 2518.89 1235.57 2522.4 1232.97L2522.92 1232.58L2521.88 1231.28ZM2576.23 1193.58C2576.23 1190.46 2575.45 1187.34 2574.02 1184.48C2572.59 1181.75 2570.51 1179.28 2568.04 1177.46C2564.66 1174.86 2560.63 1173.43 2556.21 1173.43H2555.95C2551.53 1173.43 2547.37 1174.86 2543.86 1177.46C2541.39 1179.28 2539.31 1181.75 2538.01 1184.48C2536.58 1187.34 2535.8 1190.46 2535.8 1193.58C2535.8 1195.79 2536.06 1197.87 2536.84 1199.95C2536.45 1200.21 2536.06 1200.47 2535.8 1200.73C2533.33 1202.55 2531.25 1205.02 2529.82 1207.75C2528.39 1210.48 2527.74 1213.6 2527.74 1216.85C2527.74 1220.1 2528.39 1223.22 2529.82 1226.08C2531.25 1228.81 2533.33 1231.15 2535.8 1232.97C2539.18 1235.57 2543.34 1237 2547.63 1237H2547.89C2552.31 1237 2556.6 1235.7 2560.24 1232.97C2562.71 1231.02 2564.79 1228.68 2566.22 1225.82C2566.35 1225.43 2566.61 1225.04 2566.74 1224.65V1237H2579.09V1235.44H2576.23V1193.58ZM2566.74 1216.59C2566.74 1219.58 2566.09 1222.44 2564.66 1225.04C2563.36 1227.64 2561.54 1229.85 2559.2 1231.67C2555.95 1234.14 2552.05 1235.44 2547.89 1235.44C2547.76 1235.44 2547.63 1235.44 2547.63 1235.44C2545.42 1235.31 2543.21 1234.53 2541.39 1233.23C2538.79 1231.28 2537.23 1228.16 2537.1 1224.91C2537.1 1224.65 2537.1 1209.18 2537.1 1208.79C2537.23 1205.54 2538.79 1202.55 2541.39 1200.47C2543.21 1199.17 2545.42 1198.39 2547.63 1198.39H2555.95C2558.68 1198.39 2561.28 1197.48 2563.49 1195.92C2564.79 1194.88 2565.96 1193.58 2566.74 1192.15V1216.59ZM2566.74 1186.17C2566.61 1189.55 2565.05 1192.54 2562.45 1194.49C2560.63 1195.92 2558.29 1196.7 2555.95 1196.7H2547.63C2544.38 1196.7 2541.13 1197.48 2538.27 1199.04C2537.75 1197.35 2537.49 1195.53 2537.49 1193.58C2537.49 1190.72 2538.14 1187.86 2539.44 1185.26C2540.74 1182.66 2542.56 1180.45 2544.9 1178.76C2548.15 1176.42 2551.92 1175.12 2555.95 1175.12C2556.08 1175.12 2556.21 1175.12 2556.21 1175.12C2558.55 1175.12 2560.63 1175.9 2562.45 1177.2C2565.05 1179.28 2566.61 1182.27 2566.74 1185.65V1186.17ZM2631.46 1235.44V1193.45V1192.93C2631.33 1189.94 2630.68 1187.21 2629.38 1184.48C2627.95 1181.75 2625.87 1179.41 2623.4 1177.59C2620.02 1174.99 2615.86 1173.56 2611.57 1173.56C2611.57 1173.56 2611.44 1173.56 2611.31 1173.56C2607.41 1173.56 2603.77 1174.6 2600.52 1176.68V1173.43H2588.3V1175.12H2591.16V1235.44H2588.3V1237H2603.38V1235.44H2600.52V1178.63C2603.64 1176.42 2607.41 1175.25 2611.31 1175.25C2611.44 1175.25 2611.57 1175.25 2611.57 1175.25C2613.78 1175.25 2615.99 1176.03 2617.81 1177.33C2620.41 1179.28 2621.97 1182.4 2622.1 1185.65V1235.44H2619.24V1237H2634.45V1235.44H2631.46ZM2658.08 1235.44V1172.91L2645.6 1178.63L2646.25 1180.19L2648.72 1179.02V1235.44H2645.86V1237H2660.94V1235.44H2658.08ZM2653.4 1163.55C2656 1163.55 2658.08 1161.34 2658.08 1158.74C2658.08 1156.14 2656 1154.06 2653.4 1154.06C2650.8 1154.06 2648.72 1156.14 2648.72 1158.74C2648.72 1161.34 2650.8 1163.55 2653.4 1163.55ZM2778.82 1235.44V1193.45V1192.93C2778.69 1189.94 2777.91 1187.08 2776.61 1184.48C2775.18 1181.75 2773.23 1179.41 2770.76 1177.59C2767.25 1174.99 2763.22 1173.56 2758.93 1173.56C2758.93 1173.56 2758.67 1173.56 2758.54 1173.56C2754.25 1173.56 2749.96 1174.86 2746.45 1177.59C2745.28 1178.5 2744.11 1179.54 2743.07 1180.71C2742.16 1179.54 2740.99 1178.5 2739.69 1177.59C2736.31 1174.99 2732.15 1173.56 2727.86 1173.56C2727.86 1173.56 2727.73 1173.56 2727.6 1173.56C2723.7 1173.56 2720.06 1174.6 2716.81 1176.68V1173.43H2704.59V1175.12H2707.45V1235.44H2704.59V1237H2719.67V1235.44H2716.81V1178.63C2719.93 1176.42 2723.7 1175.25 2727.6 1175.25C2727.73 1175.25 2727.73 1175.25 2727.86 1175.25C2730.07 1175.25 2732.28 1176.03 2734.1 1177.33C2736.7 1179.28 2738.26 1182.4 2738.39 1185.65V1235.44H2735.53V1237H2750.74V1235.44H2747.75V1193.45V1192.93C2747.62 1189.94 2746.97 1187.08 2745.67 1184.48C2745.15 1183.7 2744.76 1182.92 2744.11 1182.14C2745.15 1180.97 2746.19 1179.8 2747.49 1178.89C2750.74 1176.42 2754.51 1175.25 2758.54 1175.25C2758.67 1175.25 2758.8 1175.25 2758.8 1175.25C2761.14 1175.25 2763.22 1176.03 2765.04 1177.33C2767.77 1179.28 2769.33 1182.4 2769.33 1185.65V1235.44H2766.47V1237H2781.68V1235.44H2778.82ZM2837.07 1173.43H2821.86V1175.12H2824.72V1231.8C2821.6 1234.14 2817.83 1235.31 2813.93 1235.31C2813.8 1235.31 2813.8 1235.31 2813.67 1235.31C2811.46 1235.31 2809.25 1234.53 2807.43 1233.1C2804.83 1231.15 2803.27 1228.16 2803.14 1224.78V1175.12H2806V1173.43H2790.92V1175.12H2793.78V1216.98C2793.78 1220.1 2794.56 1223.22 2795.99 1225.95C2797.29 1228.68 2799.37 1231.15 2801.84 1232.97C2805.22 1235.57 2809.38 1236.87 2813.67 1237C2813.8 1237 2813.8 1237 2813.93 1237C2817.83 1237 2821.47 1235.96 2824.72 1233.88V1237H2837.07V1235.44H2834.08V1175.12H2837.07V1173.43ZM2886.31 1212.95C2885.66 1209.96 2884.36 1207.23 2882.54 1204.89C2882.02 1204.11 2881.37 1203.46 2880.72 1202.68C2878.51 1200.6 2874.87 1198.65 2871.88 1197.09C2868.89 1195.66 2863.95 1193.32 2863.95 1193.32C2857.71 1190.33 2851.21 1186.69 2850.69 1183.31C2850.43 1182.27 2850.82 1181.36 2851.86 1180.32C2851.86 1180.19 2851.99 1180.19 2851.99 1180.19C2854.98 1177.07 2859.4 1175.25 2864.21 1175.12C2864.47 1175.12 2864.86 1175.12 2865.12 1175.12C2869.41 1175.12 2873.83 1176.42 2877.08 1178.76C2877.34 1178.89 2877.47 1179.02 2877.6 1179.15C2878.25 1179.67 2878.9 1180.19 2879.55 1180.71C2882.93 1184.09 2884.75 1188.51 2884.88 1193.32V1193.84H2886.57V1173.69H2884.88V1174.21C2884.88 1176.68 2883.19 1178.37 2880.72 1178.37C2880.07 1178.37 2879.29 1178.24 2878.64 1177.85C2878.38 1177.59 2878.25 1177.46 2878.12 1177.46C2874.48 1174.86 2869.8 1173.43 2865.12 1173.43C2864.73 1173.43 2864.47 1173.43 2864.21 1173.43C2858.88 1173.69 2854.2 1175.64 2850.82 1178.89C2850.69 1179.02 2850.69 1179.02 2850.69 1179.15C2848.87 1180.84 2847.83 1182.66 2846.92 1184.87C2846.14 1187.08 2846.01 1189.68 2846.66 1191.89C2847.31 1194.49 2849 1196.44 2851.34 1197.61H2851.47C2859.92 1201.77 2876.17 1209.57 2876.56 1209.83C2877.73 1210.35 2878.64 1211.13 2879.55 1211.91C2881.89 1214.38 2883.19 1217.5 2883.19 1220.75C2883.32 1224.13 2882.02 1227.25 2879.81 1229.72L2879.55 1229.98C2876.3 1233.1 2872.14 1235.05 2867.72 1235.31C2867.33 1235.31 2866.81 1235.44 2866.42 1235.44C2862.52 1235.44 2858.62 1234.14 2855.37 1231.8C2855.24 1231.67 2854.98 1231.41 2854.85 1231.28C2854.33 1230.89 2853.81 1230.5 2853.29 1229.98C2849.78 1226.47 2847.83 1221.92 2847.83 1216.98V1216.33H2846.27V1236.87H2847.83V1236.22C2847.83 1233.88 2849.65 1232.06 2851.73 1232.06C2852.51 1232.06 2853.16 1232.32 2853.81 1232.71C2853.94 1232.84 2854.2 1232.97 2854.33 1233.1H2854.46C2857.84 1235.7 2862.13 1237 2866.42 1237C2866.94 1237 2867.33 1237 2867.85 1237C2872.66 1236.74 2877.21 1234.66 2880.72 1231.15C2880.85 1231.02 2880.85 1231.02 2880.98 1230.89C2885.66 1226.08 2887.61 1219.32 2886.31 1212.95ZM2910.34 1235.44V1172.91L2897.86 1178.63L2898.51 1180.19L2900.98 1179.02V1235.44H2898.12V1237H2913.2V1235.44H2910.34ZM2905.66 1163.55C2908.26 1163.55 2910.34 1161.34 2910.34 1158.74C2910.34 1156.14 2908.26 1154.06 2905.66 1154.06C2903.06 1154.06 2900.98 1156.14 2900.98 1158.74C2900.98 1161.34 2903.06 1163.55 2905.66 1163.55ZM2984.53 1213.08C2983.36 1217.5 2981.15 1221.79 2978.03 1225.17C2975.3 1228.29 2972.05 1230.76 2968.15 1232.58C2964.25 1234.4 2960.09 1235.31 2955.8 1235.44C2949.95 1235.31 2944.36 1232.97 2940.33 1228.81C2936.17 1224.65 2933.83 1219.19 2933.7 1213.34V1197.09C2933.83 1191.24 2936.17 1185.78 2940.33 1181.62C2944.36 1177.46 2949.95 1175.12 2955.8 1175.12C2961.65 1175.25 2967.11 1177.46 2971.27 1181.62C2975.43 1185.78 2977.77 1191.24 2977.9 1197.22V1198H2986.48L2986.22 1196.96C2984.92 1192.28 2982.58 1187.86 2979.33 1184.22C2976.47 1180.84 2972.96 1178.24 2968.93 1176.42C2964.9 1174.47 2960.61 1173.56 2956.06 1173.43C2956.06 1173.43 2955.93 1173.43 2955.8 1173.43C2951.25 1173.43 2946.83 1174.47 2942.67 1176.42C2938.64 1178.24 2935.13 1180.84 2932.27 1184.22C2927.07 1190.07 2924.34 1197.48 2924.34 1205.28C2924.34 1212.95 2927.07 1220.49 2932.27 1226.34C2935.13 1229.59 2938.64 1232.19 2942.67 1234.14C2946.83 1235.96 2951.25 1237 2955.8 1237C2955.93 1237 2956.06 1237 2956.06 1237C2960.61 1237 2964.9 1235.96 2968.93 1234.14C2972.96 1232.19 2976.47 1229.59 2979.33 1226.34C2982.58 1222.7 2984.92 1218.28 2986.22 1213.6L2986.35 1212.95L2984.79 1212.56L2984.53 1213.08Z" fill="#F8F7F2"/>
</svg>
